<svg xmlns="http://www.w3.org/2000/svg" viewBox="0 0 424.2 453.45"><path style="fill:#000" d="M333.69 452.28c-3.3-.812-8.475-1.674-11.5-1.916-9.947-.796-15.434-1.601-16.475-2.419-1.649-1.294-30.411-10.87-37.618-12.525-7.488-1.718-20.223-7.264-26.665-11.612-2.388-1.611-5.372-2.93-6.632-2.93-3.354 0-16.628-3.568-20.11-5.405-3.959-2.089-11.412-2.097-12.935-.015-.806 1.103-2.85 1.596-6.761 1.631-4.847.044-5.778.371-6.874 2.42-.697 1.303-1.652 2.37-2.121 2.37-1.904 0-10.265 8.839-13.08 13.826-1.82 3.223-4.04 5.721-5.618 6.321-1.436.546-7.69 1.187-13.896 1.425-9.856.378-11.783.178-15.217-1.573-4.702-2.399-5.999-4.534-5.999-9.875 0-4.36 1.658-6.558 2.179-2.89.177 1.246.884 2.265 1.571 2.265 1.5 0 1.6.426.669 2.851-.767 2 .514 3.25 4.387 4.28 1.61.429 3.026-.064 4.699-1.635 1.535-1.442 3.017-2.01 4.131-1.582 2.602.998 12.166-3.215 12.957-5.708.365-1.149.754-5.266.864-9.148.187-6.551.11-6.843-1.083-4.058l-1.284 3-.045-4.309c-.028-2.628.345-4.068.955-3.69.631.39.951-1.71.868-5.692-.11-5.255-.247-5.724-.826-2.809l-.695 3.5-1.173-2.815c-.646-1.548-1.174-3.475-1.174-4.282 0-.807-.627-2.967-1.393-4.8-.817-1.957-1.046-3.893-.553-4.69.923-1.494.727-1.855 3.033 5.587.682 2.2 1.44 3.404 1.685 2.674.602-1.794-1.742-10.008-3.863-13.533-1.468-2.44-1.778-2.587-2.115-1-.32 1.51-.719 1.25-2.12-1.39-1.343-2.53-2.372-3.25-4.64-3.25-4.088 0-4.572 1.518-1.513 4.738 4.355 4.581 7.985 10.437 10.292 16.6 2.663 7.114 2.729 9.532.455 16.867-1.497 4.828-2.308 5.948-5.278 7.293-1.93.874-5.53 1.562-8 1.53s-5.84-.073-7.49-.089c-2.895-.027-2.93-.08-1-1.542 1.508-1.142 3.375-1.357 7.593-.876 5.384.615 5.694.52 8.25-2.517 2.378-2.826 2.657-3.975 2.657-10.945 0-6.226-.394-8.29-1.964-10.284-1.848-2.35-2.653-2.525-13.753-2.982-7.973-.328-12.76-.995-14.787-2.059-4.616-2.423-17.497-16.853-17.497-19.602 0-.594-1.318-1.762-2.929-2.595-1.61-.833-3.216-2.42-3.567-3.525-.351-1.106-.995-2.011-1.43-2.011-.436 0-2.9-1.855-5.475-4.122-4.503-3.964-8.599-10.257-8.599-13.212 0-.778-1.163-3.496-2.585-6.04-2.395-4.285-2.893-4.637-6.75-4.776-2.991-.107-3.39-.267-1.415-.566 1.553-.235 2.75-1.052 2.75-1.875 0-2.075-4.213-3.407-10.815-3.42-7.244-.014-13.185-.99-13.185-2.165 0-.503 1.463-.677 3.25-.386 7.066 1.15 14.045 1.066 14.477-.174.604-1.734-3.069-3.021-11.227-3.934l-7-.783 6.438-.524c6.075-.494 6.341-.62 4.721-2.23-.944-.94-2.266-1.505-2.938-1.256-.671.248-3.92.879-7.22 1.4-9.563 1.513-19.872 4.208-21.503 5.622-.826.716-2.85 1.825-4.5 2.464-3.961 1.536-15.025-.263-22.342-3.632l-5.346-2.45.666-6.22c.889-8.289 1.309-9.53 3.649-10.782 2.456-1.315 7.512-.318 8.258 1.628.304.792 1.41 1.44 2.459 1.44 2.356 0 3.413-4.39 2.632-10.93-.3-2.514-.714-7.046-.918-10.07-.406-5.986-1.915-14.693-3.399-19.609-.516-1.71-.996-14.462-1.066-28.339-.138-27.03.216-24.607-6.062-41.55-4.688-12.652-3.687-24.212 3.09-35.707 3.146-5.335 5.157-11.87 6.86-22.295.628-3.85 1.834-9.277 2.68-12.06 1.58-5.21 1.47-9.913-.564-23.94-2.952-20.365-3.053-22.013-1.883-30.763 1.107-8.275 1.05-9.013-1.02-13.277-1.207-2.482-2.194-5.967-2.194-7.744s-.431-4.734-.959-6.574c-.528-1.84-1.065-5.377-1.194-7.86-.128-2.483-1.01-6.807-1.958-9.609-1.497-4.42-1.542-5.445-.347-7.757.758-1.465 1.108-2.934.778-3.263-.544-.544 1.181-7.94 3.836-16.45 1.385-4.438 2.567-3.28 7.423 7.278 2.154 4.685 4.28 8.518 4.722 8.518 1.658 0 12.23 12.388 13.004 15.237.879 3.24.397 3.249 9.695-.157 6.263-2.294 10.749-2.555 16.5-.959 3.87 1.075 4.08 1.006 6.5-2.128 1.375-1.782 4.806-5.592 7.624-8.468 2.818-2.876 7.72-8.935 10.894-13.464 3.173-4.53 6.386-8.471 7.138-8.76 2.36-.906 4.192 1.647 5.397 7.525.64 3.12 1.603 6.215 2.14 6.877 1.03 1.272.566 12.727-.722 17.796l-.762 3 2.235-1.986 2.235-1.986-.721 3.986c-.397 2.192-1.15 4.815-1.675 5.829-1.256 2.428-.233 6.27 1.886 7.083.927.356 3.877-.14 6.556-1.104 3.61-1.298 5.31-1.476 6.573-.686 2.059 1.29 2.822 7.912 1.144 9.934-.99 1.192-.625 1.43 2.186 1.435 4.545.008 10.872 1.84 10.872 3.149 0 .583-.618.823-1.373.533-2.917-1.12-10.72-1.88-13.115-1.28-3.603.905-3.105 2.099 1.446 3.462 2.176.652 4.275 1.7 4.664 2.328.473.767.13.922-1.046.47-3.23-1.239-9.577-1.932-9.567-1.045.005.483 2.901 3.353 6.437 6.378s6.456 6.12 6.49 6.877c.035.758-1.91-.442-4.322-2.665s-5.88-4.816-7.707-5.76l-3.322-1.718-2.806 3.361c-4.2 5.03-6.69 12.523-6.05 18.204.295 2.611.926 4.988 1.403 5.283.477.295.868 2.913.868 5.818s.67 7.491 1.489 10.191c.819 2.7 1.494 5.723 1.5 6.718.02 3.288-1.668.844-3.471-5.027-2.617-8.522-3.798-8.96-3.339-1.238.392 6.593 2.379 11.102 8.013 18.19 2.647 3.328 1.676 4.818-1.419 2.177-2.217-1.892-2.225-1.891-.8.09.792 1.1 2.36 2.777 3.484 3.727 2.268 1.918 1.007 2.28-2.844.815-2.033-.773-2.41-.679-1.963.49.306.795 2.31 1.918 4.453 2.495 4.31 1.161 4.998 2.488 1.812 3.5-1.413.448-2.804-.014-4.315-1.433-2.09-1.964-5.6-2.876-5.6-1.455 0 .352.787 1.215 1.748 1.918 2.739 2.003.626 2.918-2.304.998-4.253-2.787-4.273-.64-.028 3.044 2.906 2.523 3.447 3.4 2.095 3.4-1.649 0-1.677.166-.297 1.75 1.714 1.967 2.973 6.442 2.921 10.373-.02 1.525.99 3.587 2.415 4.925 1.428 1.341 2.45 3.429 2.45 5.004 0 1.487.64 3.235 1.421 3.884.782.649 1.71 2.884 2.062 4.967.355 2.101 1.945 5.216 3.573 6.998 1.613 1.766 3.381 4.048 3.928 5.071 1.02 1.906 11.768 9.815 17.047 12.545 1.621.838 5.14 3.472 7.82 5.852 3.214 2.855 7.456 5.27 12.455 7.094 7.756 2.828 12.041 6.351 17.484 14.372 3.375 4.972 11.208 20.863 11.208 22.736 0 .885 2.647 5.957 5.882 11.27 11.97 19.659 15.11 27.555 19.015 47.814 2.085 10.818 4.404 15.558 10.244 20.943 6.26 5.771 18.586 11.366 25.098 11.392 1.507.006 6.007.889 10 1.962 5.282 1.42 10.395 1.94 18.761 1.91 6.325-.024 16.11.673 21.743 1.548 5.634.875 13.284 1.627 17 1.672 6.544.079 6.662.124 3.757 1.455l-3 1.374 5 .075c3.917.06 4.618.298 3.239 1.101-1.263.735-5.088.423-13.5-1.102-6.457-1.17-13.09-2.32-14.74-2.554-2.989-.424-2.987-.42.5 1.178 3.415 1.564 14.009 4.082 20.975 4.986 1.91.248 5.825-.289 8.7-1.193 3.305-1.04 6.253-1.37 8.025-.899l2.8.744-2.5.798c-1.375.44-4.678 1.093-7.341 1.452-2.663.36-4.536.958-4.161 1.329.736.73.99.75 13.253 1.004 12.639.262 10.22 2.17-2.75 2.17-6.667 0-11 .395-11 1 0 .559 2.711 1 6.134 1 6.387 0 13.866 1.704 13.866 3.159 0 1.067-.07 1.062-3.864-.26-1.739-.607-3.902-.818-4.808-.47-1.16.445.523 1.671 5.693 4.15 4.037 1.934 9.51 5.11 12.162 7.057 6.013 4.413 13.534 8.08 26.946 13.134 5.741 2.163 12.223 5.144 14.404 6.625 11.031 7.488 13.84 9.606 12.74 9.606-1.717 0-8.273-3.232-8.273-4.078 0-.39-.725-.986-1.612-1.327-1.29-.495-1.49-.14-1.008 1.785.591 2.354.522 2.382-3.424 1.38-3.656-.927-7.203-.11-4.189.966.698.249 1.903 1.087 2.68 1.863.775.776 1.906 1.41 2.513 1.41.606 0 1.4.788 1.765 1.75.365.963 1.218 2.313 1.896 3 .983.995 1.317.894 1.65-.5.376-1.569.506-1.543 1.262.25 1.302 3.092 3.708 4.517 6.621 3.924 1.46-.297 2.924-.106 3.252.425.34.551-.369.782-1.655.538-4.058-.77 5.629 2.687 10.499 3.746 4.885 1.063 6.503 2.895 2.5 2.833-1.238-.02-5.134-.654-8.659-1.41-4.664-1-6.879-1.08-8.135-.296-2.285 1.427-6.706-.413-13.06-5.436-2.66-2.103-5.107-3.823-5.438-3.823-.33 0-1.276-.675-2.1-1.5s-1.94-1.5-2.476-1.5c-1.282 0 2.315 4.927 3.628 4.968.555.018 1.571.932 2.258 2.032 1.091 1.746.999 2-.725 2-3.086 0-9.158-3.257-8.632-4.63.53-1.377-10.756-7.692-11.829-6.619-.366.366 1.266 1.676 3.627 2.912 3.54 1.853 3.877 2.254 1.92 2.291-3.573.068-1.544 1.921 9.14 8.346 9.615 5.783 12.566 7.229 21.731 10.642l5.5 2.049-8.5-.64c-6.69-.503-9.884-1.319-15-3.831-7.016-3.447-13.35-6.96-16.432-9.113-1.415-.99-2.283-1.058-3.25-.257-.967.803-1.784.733-3.068-.26-1.394-1.08-1.358-.897.177.9 1.311 1.537 2.153 1.89 2.638 1.105.391-.634 1.26-.813 1.93-.399.939.58.907.972-.138 1.704-1.07.75-1.09 1.06-.089 1.465.697.282 1.822 1.06 2.5 1.73 1.953 1.928 4.565 2.605 5.008 1.298.269-.792 2.83.068 7.614 2.556 3.964 2.063 7.861 3.75 8.66 3.75s1.45.444 1.45.986c0 1.056-9.05-2.185-12.715-4.554-3.5-2.262-4.794-1.668-2.143.983 1.328 1.328 5.327 3.394 8.886 4.59 7.839 2.636 8.772 3.376 3.472 2.751-8.94-1.054-26.743-6.745-35.71-11.416-5.11-2.662-9.515-5.09-9.79-5.396-.275-.306-1.963-1.148-3.75-1.871-3.409-1.38-4.1-2.56-2-3.414 1.173-.477-3.074-5.02-9.386-10.038-1.3-1.034-3.82-3.253-5.6-4.932-5.042-4.757-4.878-2.504.199 2.72 2.495 2.568 4.537 5.004 4.537 5.414 0 .41 2.438 3.153 5.417 6.096 3.114 3.075 5.194 5.93 4.893 6.716-.288.75 0 1.366.642 1.366s.888-.45.548-1c-1.239-2.004 1.513-.929 4.715 1.842 6.339 5.486 15.546 9.663 30.785 13.965 2.998.847 3.136 1.003.96 1.09-4.22.17-13.782-2.727-21.063-6.38-5.642-2.833-6.652-3.098-5.644-1.483.676 1.08 1.85 1.966 2.61 1.966 1.115 0 1.142.29.137 1.5-.751.905-.833 1.5-.206 1.5.572 0 1.203-.49 1.402-1.09.246-.735 1.488-.593 3.834.441 4.381 1.932 16.794 5.647 18.889 5.654.87.003 3.323.49 5.451 1.08 4.962 1.378 3.625 2.931-3.596 4.177-9.732 1.678-37.66 1.766-44.274.139zm4.058-2.307c-.685-1.109-9.313-4.124-11.486-4.015-1.348.068-1.358.156-.072.622.825.298 2.85 1.122 4.5 1.83 5.864 2.52 7.932 2.978 7.058 1.563zm25.442-2.094c0-.55-1.125-1-2.5-1s-2.5.45-2.5 1 1.125 1 2.5 1 2.5-.45 2.5-1zm-18.436-2.896c-.615-.995-7.652-3.35-8.243-2.759-.16.16 1.6 1.251 3.91 2.424 4.22 2.144 5.513 2.244 4.333.335zm10.436.896c0-.55-.199-1-.441-1s-.72.45-1.06 1c-.34.55-.14 1 .442 1s1.059-.45 1.059-1zm-32-2.393c0-.216-.699-.661-1.552-.989-.89-.341-1.291-.173-.941.394.587.95 2.493 1.405 2.493.595zm25.896-1.044c-.91-.91-12.831-6.563-13.84-6.563-.581 0-1.056.675-1.056 1.5s.787 1.502 1.75 1.505c.962.003 3.1.87 4.75 1.927 2.5 1.602 9.781 3.016 8.396 1.631zm-190.4-2.563c.782-1.266-.542-1.266-2.5 0-1.293.835-1.267.972.19.985.93.008 1.97-.435 2.31-.985zm158.86-.5c-.627-1.634-2.362-2.063-2.362-.583 0 .759.701 1.275 2.719 2.004.12.044-.04-.596-.357-1.42zm6.197-.032c-1.967-1.488-3.559-1.906-3.559-.936 0 .486 3.819 2.298 5 2.373.275.017-.373-.63-1.441-1.437zm8.441.139c0-.216-.698-.661-1.552-.989-.89-.341-1.291-.173-.94.393.586.95 2.492 1.406 2.492.596zm-180.27-1.211c-.332-.332-1.195-.368-1.917-.08-.797.32-.56.557.605.605 1.054.043 1.644-.193 1.312-.525zm11.271-2.562c0-1.564-.413-1.874-1.75-1.312-.962.404-2.77.956-4.015 1.226-3.987.864-3.874 2.594.12 1.845 2.406-.451 3.645-.308 3.645.42 0 .608.45.827 1 .487s1-1.54 1-2.666zm156 .166c0-.55-.787-.993-1.75-.985-1.496.013-1.532.157-.25.985 1.887 1.22 2 1.22 2 0zm5.166-2.142c-1.768-1.729-3.448-2.91-3.732-2.625-.53.53 5.222 5.767 6.333 5.767.337 0-.834-1.414-2.601-3.142zm-42.166 1.713c0-.937-3.215-3.569-4.322-3.538-.648.019-.116.919 1.182 2 2.358 1.964 3.14 2.347 3.14 1.538zm33-2.571c0-.55-.477-1-1.06-1-.582 0-.78.45-.44 1s.816 1 1.059 1c.242 0 .44-.45.44-1zm29-1c-3.27-2.558-4.928-2.588-1.861-.033 1.298 1.081 2.81 1.971 3.36 1.978.55.006-.124-.87-1.5-1.945zm17.5 0c-.996-1.1-2.528-1.99-3.405-1.978-1.161.016-.915.554.905 1.978 3.263 2.553 4.81 2.553 2.5 0zm-65.5-1c0-.55-.45-1-1-1s-1 .45-1 1 .45 1 1 1 1-.45 1-1zm-35-2.5c-.685-.825-2.064-1.5-3.064-1.5s-2.096-.45-2.436-1c-.89-1.44-2.744-1.234-2.259.25.225.688 1.95 1.787 3.834 2.444 4.628 1.612 5.392 1.575 3.925-.194zm44.75.42c-.963-.56-1.75-1.672-1.75-2.47 0-.797-.45-1.45-1-1.45s-1 .302-1 .671c0 1.154 3.255 4.33 4.405 4.299.602-.017.307-.49-.655-1.05zm-138.81-3.17c-.06-3.04-.124-3.099-1.002-.908-.516 1.289-.686 2.751-.378 3.25 1.024 1.657 1.444.944 1.38-2.342zm3.063 1.75c0-.825-.177-1.5-.393-1.5-.216 0-.652.675-.969 1.5-.316.825-.14 1.5.393 1.5s.97-.675.97-1.5zm125 .059c0-.242-.45-.72-1-1.059-.55-.34-1-.141-1 .441s.45 1.059 1 1.059 1-.198 1-.441zm40.02-3.035c-.696-.838-1.73-1.524-2.297-1.524s-.216.903.783 2.006c2.068 2.285 3.446 1.847 1.514-.482zm-37.02.476c0-.55-.476-1-1.059-1-.582 0-.78.45-.44 1s.816 1 1.058 1c.243 0 .441-.45.441-1zm17.93-8c-3.422-3.85-6.606-7-7.076-7-.47 0-.854-.744-.854-1.653 0-3.27-14.466-17.003-25.5-24.207-8.698-5.68-20.775-8.193-22.15-4.61-.665 1.734-3.853 1.11-6.17-1.206-1.641-1.642-3.68-1.26-3.68.689 0 1.127 11.628 9.987 13.107 9.987 1.61 0 13.456 9.894 22.643 18.913 7.747 7.605 10.74 10 10.719 8.57-.017-1.09-1.046-3.558-2.285-5.483-3.235-5.024-14.433-16.682-18.349-19.102-3.09-1.91-4.89-4.819-2.085-3.37.688.355.17-.233-1.15-1.308s-3.232-1.736-4.25-1.47c-1.017.266-1.85-.019-1.85-.633s-.81-1.117-1.8-1.117c-1.84 0-4.2-1.783-4.2-3.175 0-2.37 16.008 4.394 21.892 9.251 3.45 2.847 1.992 3.378-2.308.841-2.018-1.19-3.868-1.966-4.11-1.722-.467.465 7.27 6.315 11.527 8.715 2.297 1.295 2.388 1.275 1.128-.25-1.909-2.308-.604-2.071 2.913.528 1.627 1.204 2.96 2.779 2.96 3.5 0 .722.48 1.312 1.067 1.312.891 0 12.485 10.631 20.332 18.644 1.155 1.18 2.921 2.192 3.925 2.25 1.301.076.037-1.907-4.395-6.894zm-49.93 5.67c0-.54-8.764-6.67-9.536-6.67-1.25 0 1.937 3.263 5.036 5.158 2.803 1.714 4.5 2.284 4.5 1.512zm-18.73-1.326c-.678-.274-2.028-.29-3-.037-.974.254-.42.478 1.23.498 1.65.02 2.446-.187 1.77-.461zm103.73-.344c1.134-.734.694-.973-1.81-.985-1.954-.009-3.056.394-2.69.985.776 1.256 2.555 1.256 4.5 0zm-62.992-1.489c-.68-.819-1.607-1.26-2.06-.979-.455.28-1.191-.098-1.638-.842-.668-1.113-6.742-4.69-7.965-4.69-.19 0-.346.675-.346 1.5s.81 1.5 1.8 1.5 2.302.502 2.916 1.116c1.578 1.578 5.532 3.67 7.156 3.786 1.103.079 1.13-.195.137-1.391zm55.58-3.011c-.478-1.906-.237-2.5 1.014-2.5 1.346 0 1.417-.27.397-1.5-.685-.825-1.64-1.5-2.123-1.5-1.018 0-1.2 6.343-.21 7.333 1.254 1.255 1.55.667.922-1.833zm-119.59-1.5c0-.55-.337-1.006-.75-1.014-.412-.008-1.762-.285-3-.616-1.28-.343-2.25-.154-2.25.44 0 .98 1.9 1.81 4.75 2.074.688.064 1.25-.334 1.25-.884zm-56.317-2.187c-.32-.798-.556-.561-.604.604-.043 1.054.193 1.645.525 1.312.332-.332.368-1.195.08-1.916zm151.82.187c-.34-.55-1.068-1-1.618-1s-.722.45-.382 1 1.068 1 1.618 1 .722-.45.382-1zm58.5-1c-1.1-1.1-2-2.45-2-3s-.837-1-1.86-1-4.51-1.306-7.75-2.903c-11.065-5.453-15.604-7.208-17.747-6.863-1.62.261-.803.932 3.357 2.754 3.025 1.325 10 4.766 15.5 7.648 10.737 5.626 13.716 6.58 10.5 3.364zm-180.73.344c-.677-.274-2.027-.29-3-.037-.973.254-.419.478 1.231.498 1.65.02 2.446-.187 1.77-.461zm56.231-.344c-.34-.55-1.068-1-1.618-1s-.722.45-.382 1 1.068 1 1.618 1 .722-.45.382-1zm8.5 0c0-.55-.45-1-1-1s-1 .45-1 1 .45 1 1 1 1-.45 1-1zm13-.565c0-1.03-10.113-10.435-11.222-10.435-.598 0-.343.823.567 1.829 2.035 2.249 2.097 3.171.214 3.171-.793 0-1.68.387-1.972.86-.292.472 1.041.685 2.962.473 2.66-.293 3.65.04 4.15 1.391.36.977 1.138 2.107 1.728 2.51 1.275.874 3.573 1.003 3.573.201zm12-.435c0-.55-.701-1-1.559-1-.857 0-1.28.45-.94 1s1.04 1 1.558 1 .941-.45.941-1zm-58.895-2.388c-1.439-1.532-2.95-2.204-4.215-1.873-2.582.675-1.819 2.85.864 2.463 1.138-.164 2.36.174 2.717.75.356.577 1.15 1.048 1.762 1.048.614 0 .106-1.075-1.128-2.388zm51.678-.112c-1.483-1.375-3.02-2.5-3.414-2.5-.395 0 .339 1.125 1.63 2.5s2.829 2.5 3.415 2.5-.148-1.125-1.63-2.5zm-86.533.838c-.687-.278-1.812-.278-2.5 0s-.125.504 1.25.504 1.938-.227 1.25-.504zm7.303-1.568c-.936-.524-1.994-.663-2.349-.307-.88.88 1.968 2.549 3.127 1.833.51-.315.16-1.002-.777-1.526zm129.43 1.48c-.058-3.232-1.455-5.25-3.632-5.25h-2.414l2.218 3c2.108 2.85 3.858 3.88 3.828 2.25zm-82.014-1c-.044-1.189-5.972-6.7-5.972-5.551 0 1.418 3.931 6.301 5.073 6.301.51 0 .915-.337.9-.75zm-7.426-1.324c.927-1.5-3.346-5.795-5.376-5.402-.918.178-1.867.357-2.107.4-.705.123 5.237 6.076 6.065 6.076.415 0 1.053-.483 1.418-1.074zm-4.046-1.926c-.34-.55-.141-1 .441-1s1.06.45 1.06 1-.2 1-.442 1-.719-.45-1.059-1zm20.5 1.49c0-.82-7.244-10.96-8.067-11.292-.411-.167-1.773-1.191-3.025-2.277s-3.319-2.237-4.592-2.556c-3.478-.873-2.83-2.637.684-1.865 1.65.363 2.986.286 2.968-.17-.062-1.63-2.716-4.33-4.257-4.33-.862 0-2.163-.579-2.89-1.286-.726-.707-2.37-1.357-3.65-1.444-2.741-.185-5.17-1.978-5.17-3.815 0-.715-1.688-1.874-3.75-2.577-2.173-.74-3.078-1.422-2.152-1.622 1.369-.295 5.24 1.298 20.901 8.6 2.398 1.118 4.233 2.266 10.601 6.632 1.595 1.093 5.73 4.805 9.189 8.25s6.946 6.262 7.75 6.262c2.093 0 1.826-.756-1.29-3.652-1.935-1.798-1.522-1.636 1.394.548 4.564 3.42 7.558 4.257 5.243 1.468-2.418-2.913-9.096-6.643-9.814-5.48-.425.687-1.275.36-2.359-.905-.932-1.088-1.404-1.979-1.049-1.979s-.17-.9-1.165-2-2.377-2-3.071-2c-.694 0-1.414-.455-1.6-1.012-.54-1.623-29.05-18.336-42.828-25.108-3.597-1.767-13.48-10.993-17.526-16.36-1.253-1.66-2.98-4.82-3.84-7.02-.86-2.2-1.017-3.173-.349-2.162 6.06 9.167 14.848 18.537 17.465 18.622.688.022 1.25.501 1.25 1.065 0 1.606 5.034 3.192 6.436 2.028 1.261-1.046 6.123 1.741 12.24 7.017 1.747 1.506 4.672 3.062 6.5 3.457 1.829.394 5.056 1.594 7.171 2.665s4.424 1.727 5.129 1.456c.704-.27 1.673-.116 2.153.343s3.796 1.135 7.371 1.503c5.998.617 6.346.55 4.5-.88-1.1-.853-3.44-1.564-5.203-1.582-1.761-.017-4.461-.538-6-1.156-1.538-.619-3.697-1.481-4.797-1.918-12.858-5.097-31.469-15.322-30.2-16.59.282-.282 2.242.55 4.356 1.846 6.592 4.043 9.55 5.073 10.438 3.636.913-1.477.149-3.117-1.094-2.349-.474.293-1.568-.474-2.43-1.706-.864-1.232-1.57-1.645-1.57-.918 0 1.598-6.82-3.836-6.927-5.52-.04-.628-.797-1.42-1.684-1.76-1.153-.443-1.446-.189-1.031.892 1.112 2.9-1.646 1.48-5.806-2.988-3.952-4.244-6.551-5.66-6.551-3.571 0 .51 1.58 2.605 3.513 4.653s3.33 3.909 3.105 4.133c-.71.71-7.127-5.429-8.649-8.272-1.866-3.487-6.678-8.549-10.264-10.796-1.537-.964-3.213-2.853-3.725-4.2-.512-1.346-1.565-2.447-2.34-2.447-1.546 0-4.65-4.17-4.625-6.215.011-.905.294-.844.959.206.684 1.083 1.244 1.191 2.04.395 1.365-1.365.378-5.58-1.881-8.037-2.654-2.887-7.033-19.032-6.946-25.61.066-5.028.246-5.537 1.413-4 .735.968 1.35 2.519 1.368 3.445.097 5.143 7.741 17.44 9.653 15.528.849-.85-.87-3.713-2.228-3.713-.766 0-1.393-.417-1.393-.928 0-.51-.684-1.613-1.52-2.45-.837-.836-1.933-3.455-2.436-5.82-1.865-8.766-2.93-12.113-4.077-12.822-.648-.4-1.584-2.922-2.08-5.604s-1.543-5.353-2.328-5.937c-.785-.584-1.73-2.272-2.101-3.75-.435-1.732-1.347-2.688-2.566-2.688-1.04 0-1.892.142-1.892.317s1.339 2.935 2.975 6.135c1.637 3.2 2.72 6.232 2.407 6.739-.313.506-1.808-1.692-3.321-4.885s-3.981-7.262-5.483-9.041-2.55-4.03-2.33-5c.319-1.4.799-1.096 2.327 1.478 1.866 3.143 3.43 3.74 4.15 1.583.333-1-4.424-7.58-8.55-11.826-1.816-1.867-2.472-4.265-1.037-3.787.351.117.126-.892-.5-2.242-1.323-2.853-2.195-3.085-3.413-.908-1.042 1.862-6.074.995-6.913-1.192-.29-.754-1.167-1.37-1.95-1.37-.784 0-1.684-.676-2-1.5-.648-1.689-3.362-2.064-3.362-.466 0 1.252-5.246-4.657-6.853-7.72-.631-1.2-1.147-3.027-1.147-4.058 0-1.031-.712-2.748-1.582-3.816-1.35-1.657-1.5-1.685-1.031-.19.676 2.15-1.182 2.281-4.033.284-1.15-.805-2.384-1.171-2.743-.813-.358.359-2.216-1.007-4.129-3.035s-4.123-3.687-4.912-3.687c-.79 0-1.708-.858-2.04-1.907s-1.264-2.16-2.068-2.469c-1.746-.67-2.017-7.669-.36-9.325 1.72-1.72.06-7.303-2.446-8.23-1.186-.44-2.044-1.084-1.906-1.433s.025-.636-.25-.636-.5.225-.5.5v2c0 .825.675 1.5 1.5 1.5 1.444 0 2.023 2.278 1.637 6.438-.25 2.691-.844 3.05-2.613 1.582-1.319-1.094-1.524-.768-1.524 2.423 0 3.847-1.444 7.557-2.942 7.557-.479 0-.663-1.012-.41-2.25.283-1.377-.123-.99-1.045 1-2.16 4.66-3.944 4.228-3.103-.75.553-3.27.386-4-.912-4-.887 0-1.588.83-1.588 1.878 0 1.032-.745 2.495-1.656 3.25-1.521 1.26-1.612.822-1.115-5.378.414-5.167.234-6.75-.767-6.75-.719 0-1.788 1.463-2.376 3.25-1.241 3.775-.665 16.571.814 18.05.675.676.666 1.642-.028 2.94-1.432 2.676-.193 3.536 1.713 1.188 1.52-1.873 1.55-1.864 1.083.322-.264 1.237-.072 2.5.426 2.809.504.311.913-2.238.921-5.75.011-4.442.302-5.865.985-4.808.533.825.976 2.512.985 3.75.009 1.258.634 2.25 1.42 2.25 1.05 0 1.302 1.073.997 4.25-.393 4.097-.336 4.034 1.585-1.75 1.805-5.437 1.963-5.635 1.687-2.109-.239 3.041.081 3.993 1.464 4.355 1.69.442 1.794 3.131.31 7.995-.208.683.73 2.27 2.085 3.526 2.575 2.388 4.61 10.733 2.616 10.733-.565 0-1.205-1.688-1.42-3.75l-.393-3.75-.168 4.19c-.092 2.306-.618 4.47-1.168 4.81-.55.34-.957 2.729-.904 5.309l.096 4.69 1.186-5c.88-3.71 1.63-4.963 2.904-4.86 1.366.11 1.718-.697 1.718-3.939v-4.077l2 2.147c2.256 2.421 2.53 4.3.87 5.96-.841.842-.65 1.062.75.86 1.442-.207 1.997-1.348 2.38-4.902.396-3.667.794-4.45 1.91-3.753.775.484 2.024.644 2.777.355 1.118-.43 1.278 1.227.88 9.095-.547 10.764-2.067 12.689-2.067 2.615 0-3.667-.436-6.5-1-6.5-.55 0-1.04 1.35-1.087 3-.189 6.445-.458 7.5-1.913 7.5-.825 0-1.5.498-1.5 1.107s.69.842 1.532.52c1.018-.392 1.848.243 2.475 1.892.576 1.514 1.733 2.481 2.968 2.481 1.594 0 2.05-.692 2.143-3.25l.119-3.25.653 3c.398 1.83.94 2.545 1.388 1.834.405-.641.283-2.358-.27-3.815-.555-1.457-.96-3.857-.902-5.334l.107-2.685 1.095 2.774c.71 1.799 2.142 3.045 4.075 3.546 1.64.424 3.09 1.325 3.224 2 .134.677.014.769-.265.205-.28-.564-.964-1.025-1.521-1.025-1.536 0 .118 21.22 1.753 22.489.716.556 1.459 2.361 1.65 4.011.192 1.65.717-.713 1.167-5.25s1.186-8.25 1.636-8.25c.45 0 .645 3.487.432 7.75-.266 5.343-.124 6.818.459 4.75.465-1.65.899-4.463.964-6.25.065-1.788.55-3.25 1.078-3.25.892 0 .438 24.691-.51 27.75-.79 2.553-2.672 1.273-2.01-1.367 1.615-6.432 1.774-8.383.685-8.383-.618 0-1.125.873-1.125 1.941 0 1.067-.52 2.262-1.156 2.655-.831.514-.99-.312-.563-2.94.712-4.386-.008-4.523-3.111-.595l-2.33 2.95 3.58 3.477c2.278 2.212 3.622 4.484 3.696 6.244.071 1.692.294 2.087.574 1.018.741-2.838 2.039-2.01 2.744 1.75.361 1.925 1.086 3.5 1.612 3.5.525 0 .983 1.237 1.018 2.75l.063 2.75.988-2.476c.749-1.876.638-2.732-.456-3.532-2.361-1.726-3.752-8.17-2.066-9.57.922-.764 1.418-3.28 1.44-7.295.033-6.597.014-6.597 4.415-.127 1.316 1.935 1.398 1.904 2.514-.968 1.745-4.487 2.524-15.114 1.17-15.95-.623-.385-1.132-1.6-1.132-2.7s.45-1.722 1-1.382c.582.36 1-.636 1-2.382 0-1.65.418-3.258.928-3.573 1.012-.626 2.694 3.337 2.104 4.955-.2.55-.462 2.91-.582 5.242-.468 9.123-1.664 15.301-3.372 17.41-1.466 1.81-1.695 3.47-1.28 9.272.53 7.412 2.415 11.55 6.75 14.82 2.265 1.708 2.308 1.687 2.994-1.432.52-2.374.279-3.47-.97-4.383-1.102-.806-1.467-2.01-1.08-3.573.512-2.075-.806-7.878-2.978-13.106-.4-.962-.31-1.75.202-1.75 1.263 0 5.284 8.215 5.284 10.794 0 3.406 1.843 7.206 3.495 7.206 1.673 0 1.594-.719-1.214-11-.826-3.025-1.902-5.928-2.391-6.45-1.175-1.255-1.132-2.55.085-2.55 1.598 0 4.025 5.647 4.025 9.367 0 1.906.435 3.616.966 3.8 1.131.39 1.676 12.525.61 13.59-.4.4-1.2-.123-1.78-1.16-.964-1.72-1.175-1.6-2.426 1.374-1.855 4.411-1.855 7.676 0 6.137 1.08-.897 2.098-.24 4.844 3.128 4.72 5.79 5.787 8.027 5.787 12.14 0 1.928.45 3.784 1 4.124.55.34 1.045 2.279 1.1 4.309.089 3.315.18 3.436.9 1.19.44-1.374.845-5.087.9-8.25.055-3.162.46-5.75.899-5.75.945 0 3.2 5.896 3.2 8.368 0 2.056 4.628 16.505 5.96 18.604 1.4 2.208 2.374.52 1.087-1.886-.614-1.147-.763-2.084-.332-2.082.432.002 1.63 2.058 2.663 4.568 1.288 3.134 3.103 5.338 5.788 7.033 2.152 1.358 4.31 3.517 4.797 4.796.888 2.337 4.038 4.359 4.038 2.592 0-.52-.899-2.418-1.997-4.218-2.774-4.55-2.638-6.705.247-3.918 3.413 3.298 9.91 8.522 13.068 10.507 1.55.975 4.224 3.767 5.942 6.204s3.882 4.433 4.81 4.433c.926 0 2.244.675 2.93 1.5 1.372 1.653 4.487 2.098 3.5.5-.34-.55.023-1 .807-1 .785 0 2.618 1.8 4.073 4 1.874 2.83 3.353 4 5.062 4 1.328 0 3.121.707 3.986 1.571 1.428 1.429 1.57 1.42 1.57-.089 0-1.346.583-1.17 3.077.929 1.693 1.424 3.493 2.589 4 2.589s.828.337.712.75c-.287 1.012 2.5 5.25 3.452 5.25.418 0 .76-.23.76-.51zm-75.395-55.077c-.804-2.097-.766-2.413.288-2.413 1.25 0 2.203 2.823 1.169 3.462-.469.29-1.124-.183-1.457-1.05zm-17.505-60.412c-2.108-10.331-2.385-13-1.35-13 1.171 0 3.608 13.522 3.064 17.012-.262 1.685-.816.39-1.714-4.012zm6.65-.577c-.413-.416-.75-2.061-.75-3.656 0-1.594-.496-3.826-1.103-4.96-.847-1.583-.79-2.257.25-2.903 1.043-.649 1.53.352 2.13 4.37.845 5.673.65 8.335-.527 7.149zm-17.25-13.423c-.34-.55.083-1 .941-1 .857 0 1.559.45 1.559 1s-.423 1-.941 1-1.22-.45-1.559-1zm-23.71-5.977c-.24-1.637-.073-3.55.371-4.25.485-.764.814.428.824 2.977.017 4.936-.566 5.558-1.195 1.273zm25.907 1.584c-.41-1.042-.508-2.13-.22-2.417.912-.912 1.714.583 1.332 2.481-.35 1.74-.404 1.738-1.112-.064zm6-1c-.41-1.042-.508-2.13-.22-2.417.912-.912 1.714.583 1.332 2.481-.35 1.74-.404 1.738-1.112-.064zm-22.697-2.107c0-.825.45-1.5 1-1.5s1 .675 1 1.5-.45 1.5-1 1.5-1-.675-1-1.5zm4.608-3.326c-.368-.595-.36-2.315.018-3.82.682-2.716.695-2.72 1.531-.459.92 2.485-.402 6.135-1.55 4.28zm-10.418-4.99c.22-1.907.885-2.684 2.296-2.684 2.948 0 2.926 2.822-.033 4.184-2.444 1.125-2.558 1.05-2.263-1.5zm22.757-3.823c-1.238-3.256-.517-4.293 1.007-1.447.614 1.147 1.748 2.086 2.522 2.086.773 0 1.684.45 2.023 1 .352.568-.497 1-1.965 1-1.872 0-2.86-.727-3.587-2.64zm-23.342-6.949c-.805-2.096-.767-2.412.288-2.412 1.25 0 2.203 2.823 1.168 3.462-.468.29-1.124-.183-1.456-1.05zm-7.605-11.97c0-.858.45-1.282 1-.942s1 1.042 1 1.56c0 .517-.45.94-1 .94s-1-.701-1-1.559zm19.02-.918c-.789-.95-.865-1.524-.202-1.524 1.21 0 2.618 1.897 1.925 2.59-.252.253-1.027-.227-1.723-1.066zm-28.52-5.524c-.34-.55-.141-1 .441-1s1.059.45 1.059 1-.198 1-.441 1-.72-.45-1.059-1zm-8.318-5.5c-.626-1.375-1.599-2.5-2.16-2.5-.562 0-1.022-.675-1.022-1.5s.417-1.5.928-1.5c1.278 0 5.072 4.962 5.072 6.635 0 2.207-1.587 1.568-2.818-1.135zm284.07 178.94c3.339-.796 3.47-1.75.5-3.646-3.603-2.3-10.75-4.862-10.75-3.852 0 .508.9 1.21 2 1.56 1.1.348 2 1.08 2 1.626s-.45.713-1 .373c-1.253-.774-1.253-.295 0 3.002.702 1.845 1.525 2.477 2.75 2.113.963-.286 2.987-.815 4.5-1.176zm-200.98-.095c-.677-.274-2.027-.29-3-.037-.973.254-.419.478 1.231.498 1.65.02 2.446-.187 1.769-.46zm71.425-2.875c-3.194-2.81-5.198-3.223-4.301-.887.334.87.607 1.796.607 2.059 0 .262.446.201.992-.136s1.783-.152 2.75.41c2.93 1.706 2.911 1.157-.048-1.447zm52.418-.756c-1.556-1.557-1.414-3.16.185-2.085.713.48.438.085-.611-.878-1.05-.962-2.499-1.75-3.22-1.75-.722 0-2.698-1.165-4.39-2.589-5.327-4.482-3.337-.448 2.629 5.33 3.309 3.205 5.876 5.014 6.112 4.305.224-.671-.093-1.722-.705-2.333zm-65.112 1.287c0-.55-.477-1-1.059-1s-.78.45-.441 1 .816 1 1.059 1 .441-.45.441-1zm132 .508c0-.891-4.342-5.508-5.18-5.508-1.576 0-.802 2.195 1.43 4.057 2.2 1.835 3.75 2.435 3.75 1.45zm-20.559-5.976c-2.704-2.045-5.13-2.068-3.441-.032.685.825 2.176 1.5 3.313 1.5 2.034 0 2.036-.025.128-1.468zm-166.44-2.532c-.64-1.194-1.382-1.951-1.65-1.683-.269.269.088 1.412.793 2.54 1.666 2.669 2.368 1.967.857-.857zm6.923-3.923c-1.253-2.23-2.47-3.864-2.702-3.631-.233.232.603 2.247 1.856 4.477s2.47 3.864 2.702 3.632c.232-.233-.603-2.248-1.856-4.478zm-68.56 1.423c.316-.825.194-1.5-.271-1.5s-1.407.675-2.092 1.5c-1.013 1.221-.963 1.5.271 1.5.833 0 1.774-.675 2.091-1.5zm7.906.844c-.677-.274-2.027-.29-3-.037-.972.254-.419.478 1.231.498 1.65.02 2.447-.187 1.77-.46zm11.231-.344c.362-.585-.675-1-2.5-1s-2.861.415-2.5 1c.34.55 1.465 1 2.5 1s2.16-.45 2.5-1zm22.297.147c2.29-1.453-1.074-3.364-3.918-2.226-1.737.695-1.906.97-.629 1.016.963.035 1.75.513 1.75 1.063 0 1.206 1.042 1.26 2.797.147zm42.917-1.861c-.916-.917-2.014-1.32-2.438-.895-.425.425.094 1.406 1.153 2.18 2.497 1.826 3.447.876 1.285-1.285zm38.286.214c-.706-.851-1.51-1.323-1.785-1.048s.079 1.197.785 2.048c.707.852 1.51 1.323 1.785 1.048s-.078-1.196-.785-2.048zm56.405.281c-3.923-4.57-4.822-5.321-8.314-6.953-4.523-2.113-5.3-1.43-1.798 1.579 1.49 1.28 2.707 2.755 2.707 3.279 0 1.02 5.572 3.968 7.905 4.184 1.029.095.895-.465-.5-2.089zm9.463-.028c-.838-1.565-1.34-1.834-1.657-.885-.25.75.163 1.754.918 2.232 1.998 1.266 2.069 1.137.74-1.347zm-158.65-3.935c-.626-.626-.765.031-.393 1.856.426 2.093.678 2.345.97.97.216-1.021-.044-2.293-.577-2.826zm139.76 2.432c-.031-2.135-8.774-8.25-11.794-8.25-2.866 0-2.804 1.627.09 2.353 1.248.313 3.16 1.376 4.25 2.361 1.782 1.614 6.602 5.102 7.23 5.234.137.029.238-.735.224-1.698zm29.74-.964c-.917-.917-2.014-1.32-2.439-.895-.425.425.094 1.406 1.153 2.18 2.497 1.826 3.447.876 1.286-1.285zm-140.15.464c-1.172-3.93-1.664-4.984-2.116-4.532-.568.569 1.23 5.782 1.995 5.782.272 0 .326-.562.121-1.25zm57.935.25c-.34-.55-1.041-1-1.559-1-.517 0-.94.45-.94 1s.7 1 1.558 1c.858 0 1.281-.45.941-1zm-82.5-.44c0-.243-.45-.72-1-1.06-.55-.34-1-.141-1 .441s.45 1.06 1 1.06 1-.2 1-.442zm158 .047c0-.216-.698-.66-1.552-.988-.89-.342-1.291-.174-.94.393.586.95 2.492 1.405 2.492.595zm-186.19-1.682c-.197-.591-.786-1.075-1.308-1.075-.523 0-1.111.484-1.309 1.075-.197.591.392 1.075 1.309 1.075.916 0 1.505-.484 1.308-1.075zm5.215-5.4c-2.74-2.917-3.707-2.671-2.005.51.796 1.486.822 1.985.081 1.527-.61-.377-1.1-.023-1.1.796 0 2.073 2.226 2.661 3.944 1.043 1.251-1.178 1.128-1.696-.92-3.876zm60.322 2.932c-.326-.849-.807-1.329-1.069-1.066-.262.262-.18.956.183 1.543.986 1.595 1.562 1.285.886-.477zm138.65-.457c-.825-.533-2.4-.97-3.5-.97-1.656 0-1.742.168-.5.97.825.533 2.4.97 3.5.97 1.656 0 1.742-.167.5-.97zm-56-.877c0-1.267-2.12-2.775-5-3.557l-2.5-.678 2.806 2.556c2.856 2.602 4.694 3.26 4.694 1.679zm-77.086-3.543c-2.012-3.41-4.915-6.444-4.915-5.136 0 1.09 2.114 4.892 3.784 6.806 2.577 2.955 3.263 1.943 1.13-1.67zm-5.415.42c-.995-1.1-2.302-1.99-2.905-1.978-.602.013.03.903 1.405 1.978 3.222 2.52 3.78 2.52 1.5 0zm107.5 0c0-.55-.476-1-1.059-1-.582 0-.78.45-.44 1s.816 1 1.059 1c.242 0 .44-.45.44-1zm-188-2.877c0-.483-.675-1.438-1.5-2.123-1.216-1.01-1.5-.97-1.5.211 0 .8.3 1.756.667 2.123.95.95 2.333.824 2.333-.211zm15-.016c0-1.092-2.7-2.358-5.815-2.724-1.449-.171-2.156.174-1.89.922.235.657 1.389 1.088 2.566.957 1.177-.131 2.14.207 2.14.75s.674.988 1.5.988 1.5-.402 1.5-.893zm146.73.29c-.332-.333-1.194-.369-1.916-.08-.798.32-.561.556.604.604 1.054.044 1.645-.193 1.312-.525zm-141.73-.774c0-.208-.685-.947-1.522-1.642-1.274-1.057-1.42-.995-.893.378.537 1.402 2.415 2.384 2.415 1.264zm42.63-3.537c-.344-2.152-1.716-6.09-3.05-8.75s-2.734-6.078-3.112-7.595c-.379-1.518-1.089-3.007-1.578-3.31-1.457-.9-1.007 6.026.528 8.125 1.092 1.494 1.15 2.263.25 3.354-.896 1.086-.876 1.513.083 1.836.687.232 1.25 1.592 1.25 3.023 0 2.556 3.428 7.231 5.302 7.231.549 0 .688-1.66.328-3.914zm-36.13-.086c-.375-1.183-.907-1.925-1.182-1.65-.275.275-.193 1.467.183 2.65s.907 1.926 1.182 1.651c.275-.275.193-1.468-.183-2.65zm177.5 2c-.825-.533-2.4-.97-3.5-.97-1.656 0-1.742.168-.5.97.825.533 2.4.97 3.5.97 1.657 0 1.743-.167.5-.97zm8.473-.348c-3.083-2.108-14.532-5.661-17.917-5.561-2.292.067-1.43.541 3.444 1.894 3.575.992 8.3 2.495 10.5 3.34 5.052 1.938 6.505 2.058 3.973.327zm-22.973-.652c-.34-.55-1.293-1-2.118-1s-1.222.45-.882 1c.34.55 1.293 1 2.118 1s1.222-.45.882-1zm-199.03-4.224c-.923-1.252-1.407-1.6-1.075-.776.331.825.907 2.389 1.279 3.475.379 1.108.85 1.448 1.075.775.22-.659-.356-2.222-1.279-3.474zm192.53 2.224c-1.97-1.273-4.287-1.273-3.5 0 .34.55 1.604.993 2.809.985 1.781-.013 1.91-.197.691-.985zm-161.89-3.287c-.817-.817-1.113-.705-1.113.42 0 1.989 1.345 3.333 1.842 1.842.211-.632-.117-1.65-.729-2.262zm136.89 2.902c0-.688-4.437-3.307-6.953-4.103-2.16-.683-2.278-.6-.983.696 1.166 1.165 4.089 2.577 7.686 3.713.137.044.25-.094.25-.306zm7 .002c0-.21-1.111-.596-2.47-.855-1.358-.26-2.232-.087-1.94.383.511.829 4.41 1.246 4.41.472zm-125-1.617c0-.55-.45-1-1-1s-1 .45-1 1 .45 1 1 1 1-.45 1-1zm149 0c-.825-.533-2.175-.97-3-.97-1.333 0-1.333.109 0 .97.825.533 2.175.97 3 .97 1.333 0 1.333-.108 0-.97zm-171.68-2.79c-.317-1.213-.974-2.206-1.46-2.206-1.159 0-1.115.7.197 3.151 1.344 2.511 2.032 1.996 1.263-.945zm113.35 1.19c-1.546-.837-3.346-1.32-4-1.073-.655.247-.065.922 1.31 1.5 3.836 1.612 5.859 1.291 2.69-.426zm41.31-.396c0-.55-.648-1-1.441-1s-1.72.45-2.059 1c-.34.55.309 1 1.441 1s2.059-.45 2.059-1zm-26.55-.93c-.523-.51-2.3-1.22-3.95-1.576l-3-.648 2.5 1.479c2.843 1.682 5.937 2.2 4.45.746zm-20.45-.495c0-.93-11.485-6.575-13.378-6.575-3.094 0-.837 1.681 5.936 4.42 6.19 2.503 7.442 2.866 7.442 2.155zm-114.76-5.31c-.544-5.063-.877-5.95-1.865-4.963-.863.863.557 9.713 1.56 9.713.448 0 .586-2.137.305-4.75zm2.952 2c-.29-1.512-.72-2.173-.956-1.467-.425 1.273.336 4.217 1.09 4.217.216 0 .155-1.237-.134-2.75zm15.345.817c-.363-.587-1.138-1.067-1.723-1.067-.663 0-.587.574.202 1.524 1.371 1.653 2.597 1.284 1.52-.457zm105.37 1.513c-1.063-1.062-8.914-3.248-8.914-2.482 0 .475 1.238 1.137 2.75 1.47 1.513.334 3.2.757 3.75.94 1.512.505 2.887.546 2.414.072zm21.537-.443c-1.417-1.288-7.41-3.137-10.167-3.137-2.011 0-2.322-.379-1.846-2.25l.573-2.25-1.163 2.26c-1.469 2.856-1.147 3.142 5.326 4.72 6.633 1.618 8.52 1.788 7.276.657zm5.55-.02c0-.486-.9-1.119-2-1.407-2.167-.566-2.798.802-.75 1.628 1.97.795 2.75.732 2.75-.221zm30-.617c-1.925-.741-4.625-1.335-6-1.319-1.943.022-1.608.323 1.5 1.347 5.363 1.768 9.102 1.745 4.5-.028zm-187.44-9.274c-1.235-1.235-1.528.696-.813 5.36l.754 4.914.309-4.857c.17-2.672.057-5.11-.25-5.417zm-2.56 6.346c0-2.419-2.304-5.572-4.07-5.572-.512 0-.93.675-.93 1.5s.627 1.5 1.392 1.5 1.674 1.125 2.02 2.5c.797 3.18 1.589 3.216 1.589.072zm50.662-.822c-.277-.687-.504-.125-.504 1.25s.227 1.938.504 1.25.278-1.812 0-2.5zm47.446 1.192c-1.315-1.096-2.664-1.719-2.998-1.385-.71.71 2.78 3.458 4.331 3.41.583-.019-.017-.93-1.333-2.025zm98.392.058c.34-.55.087-1-.562-1-.65 0-5.9-.7-11.668-1.557-5.768-.857-10.676-1.369-10.907-1.138-.514.513 6.224 2.242 13.638 3.5 7.71 1.307 8.799 1.33 9.5.195zm-216.5-1c0-.55-.476-1-1.059-1-.582 0-.78.45-.44 1s.816 1 1.059 1c.242 0 .44-.45.44-1zm52-1.5c0-1.375-.45-2.5-1-2.5-1.117 0-1.37 3.296-.333 4.333 1.102 1.103 1.333.785 1.333-1.833zm2.663-.75c-.278-.687-.505-.125-.505 1.25s.227 1.938.505 1.25.277-1.812 0-2.5zm-18.565-3.469c-.925-1.589-1.04-1.601-1.068-.113-.016.918.294 2.493.69 3.5.659 1.673.751 1.683 1.068.113.19-.945-.12-2.52-.69-3.5zm132.63 4.115c-.332-.332-1.195-.368-1.917-.079-.798.32-.56.556.604.604 1.054.044 1.645-.193 1.313-.525zm-18.73-.814c0-.67-13.08-4.836-13.587-4.328-.592.592 9.532 4.596 11.838 4.681.962.036 1.75-.123 1.75-.353zm6.5-.582c-.34-.55-1.603-.955-2.808-.9-2.04.093-2.018.155.309.9l2.809.9c.17.055.03-.35-.31-.9zm16.95.052c-1.43-1.428-8.453-4.19-8.427-3.315.013.42 1.475 1.519 3.25 2.443 3.593 1.87 6.702 2.393 5.178.872zm-173.45-3.552c0-1.63-.559-2.5-1.606-2.5-1.055 0-1.399.544-1 1.582.334.87.607 1.995.607 2.5 0 .505.45.918 1 .918s1-1.125 1-2.5zm49.863-.38c-.218-.634-.913-.714-1.74-.2-.759.471-1.046 1.396-.638 2.055.876 1.418 2.947-.198 2.378-1.855zm-36.852-2.87c.006-2.612.674-6.937 1.485-9.61 1.209-3.983 1.228-4.656.107-3.726-.752.624-1.87 4.518-2.485 8.651-1.363 9.167-1.367 9.435-.118 9.435.55 0 1.005-2.137 1.01-4.75zm56.695-1.5c-.239-1.237-.434-.225-.434 2.25s.195 3.488.434 2.25c.238-1.237.238-3.262 0-4.5zm59.123 2.347c-.72-1.153-2.08-2.097-3.02-2.097s-2.12-.735-2.624-1.633c-.502-.899-2.271-2.204-3.93-2.902-2.768-1.164-2.976-1.114-2.528.6.27 1.028 1.394 2.156 2.5 2.507s3.868 1.905 6.138 3.453c4.61 3.142 5.391 3.159 3.464.072zm-62.844-.906c-.013-1.457-.15-1.484-.985-.191-1.265 1.958-1.265 3.282 0 2.5.55-.34.993-1.379.985-2.309zm82.015.809c-4.645-1.949-7.9-2.567-6.585-1.25.899.9 7.476 3.02 9.585 3.09.825.026-.525-.801-3-1.84zm12.98.548c-2.649-1.441-10.894-3.264-9.905-2.189.937 1.017 8.261 3.498 10.425 3.53 1.736.027 1.667-.15-.52-1.34zm-112.75-4.81c.23-2.887-.062-6.15-.647-7.25-.92-1.73-1.132-1.395-1.57 2.5-.593 5.264-.115 10 1.01 10 .434 0 .977-2.362 1.207-5.25zm-26.518-5c-.239-1.237-.434-.225-.434 2.25s.195 3.488.434 2.25c.238-1.237.238-3.262 0-4.5zm19.725-.5c-.323-3.162-.967-6.65-1.431-7.75-.464-1.1-1.169-3.35-1.566-5l-.721-3-.757 2.5c-1.187 3.923-1.07 5 .544 5 1.794 0 1.851.476.386 3.213-.892 1.667-.792 2.26.5 2.984.888.496 1.614 1.744 1.614 2.771 0 2.023.966 5.032 1.616 5.032.22 0 .138-2.587-.185-5.75zm-6.8 2.5c-.332-1.237-.61-3.037-.617-4-.008-.962-.478-1.75-1.045-1.75-1.706 0-2.305 2.968-1.122 5.564 1.416 3.107 3.605 3.254 2.783.186zm-14.702-9.5c.039-.687-.38-1.25-.93-1.25s-.968 1.463-.93 3.25c.06 2.724.21 2.926.93 1.25.473-1.1.892-2.562.93-3.25zm91.07 4.08c0-1.01-3.187-4.33-4.155-4.33-1.472 0-.913 2.228.905 3.608 1.928 1.464 3.25 1.757 3.25.721zm-101-4.389c0-.517-.45-.94-1-.94s-1 .7-1 1.558c0 .858.45 1.281 1 .941s1-1.041 1-1.559zm16-1.059c0-1.1-.45-1.722-1-1.382-.55.34-1 1.518-1 2.618s.45 1.722 1 1.382c.55-.34 1-1.518 1-2.618zm6.626-1.415c-.697-1.815-2.626-1.938-2.626-.167 0 1.82 2.372 4.086 2.832 2.705.196-.589.104-1.73-.206-2.538zm27.374 2.14c0-.948-2.993-1.426-3.527-.563-.325.526.336.956 1.468.956s2.059-.177 2.059-.393zm-13.17-6.607-.03-2.5-.8 2.5c-.44 1.375-.814 3.4-.83 4.5-.03 2-.03 2 .83 0 .473-1.1.846-3.125.83-4.5zm-23.83.441c0-.792-.45-1.44-1-1.44s-1 .926-1 2.058c0 1.133.45 1.781 1 1.441.55-.34 1-1.266 1-2.059zm34.683.372c-.32-.798-.556-.561-.604.604-.044 1.054.193 1.645.525 1.312.332-.332.368-1.194.079-1.916zm-49.705-6.48c.012-.643.335-1.993.716-3 .618-1.63.528-1.668-.817-.333-1.334 1.325-3.914 7.281-3.855 8.9.041 1.099 3.933-4.38 3.956-5.568zm22.022 3.102c0-2.971-1.634-6.435-3.035-6.435-.53 0-.965 1.111-.965 2.469 0 1.882.392 2.318 1.648 1.836 1.34-.514 1.553-.136 1.139 2.032-.28 1.465-.122 2.663.352 2.663s.861-1.154.861-2.565zm14.575-.981c.59-3.142.076-5.525-.942-4.37-1 1.134-1.62 7.916-.723 7.916.55 0 1.299-1.596 1.665-3.546zm-8.59-.204c-.012-2.143-.23-2.419-.985-1.25-1.264 1.957-1.264 4 0 4 .55 0 .993-1.237.985-2.75zm68.137.075c-.872-1.498-1.067-1.542-1.092-.241-.032 1.684 1.02 3.2 1.728 2.491.234-.233-.052-1.246-.636-2.25zm-86.122-2.515c0-1.314-2.273-.491-2.771 1.004-.244.73.213.954 1.187.58.871-.334 1.584-1.047 1.584-1.584zm76.041-1.752c-2.194-3.081-3.041-3.715-3.041-2.275 0 1.131 4.274 6.277 4.787 5.764.237-.237-.549-1.807-1.746-3.489zm-188.27 1.13c.244-.732-.214-.955-1.188-.581-.87.334-1.583 1.047-1.583 1.584 0 1.314 2.273.49 2.771-1.004zm5.183.367c.66-.794 1.052-2.325.873-3.401-.266-1.592-.649-1.324-2.056 1.445-1.746 3.436-1.029 4.622 1.183 1.956zm131.27-1.657c.536-3.647-.132-7.898-1.24-7.898-.86 0-1.69 6.59-1.171 9.289.532 2.765 1.919 1.965 2.411-1.39zm-8.228-2.016c0-1.745-.418-2.741-1-2.382-.55.34-1 1.968-1 3.618 0 1.746.418 2.742 1 2.382.55-.34 1-1.968 1-3.618zm-9.5-.882c-.9-4.1-1.709-3.293-.875.875.351 1.757.847 2.986 1.102 2.731.255-.254.153-1.877-.227-3.606zm-103.03.15c-.564-.593-2.466.91-2.466 1.949 0 .539.63.4 1.4-.31.769-.708 1.249-1.446 1.066-1.639zm-14.216.153c1.16-.651.886-3.767-.45-5.103-1.826-1.825-2.746-1.463-3.935 1.55-1.013 2.567-1.14 2.617-1.905.75-.736-1.796-.827-1.737-.89.584-.039 1.42.222 2.875.578 3.231.603.603 4.897-.055 6.602-1.012zm108.45-5.94c-.651-.65-2.386 1.902-3.152 4.637-.573 2.048-.314 1.892 1.432-.862 1.172-1.85 1.946-3.548 1.72-3.775zm21.966 3.387c-.278-.687-.504-.125-.504 1.25s.226 1.938.504 1.25.277-1.812 0-2.5zm-89.662 1.25c0-.55-1.125-1-2.5-1s-2.5.45-2.5 1 1.125 1 2.5 1 2.5-.45 2.5-1zm21.183-1.216c-.718-.718-1.183-.777-1.183-.15 0 1.334 1.182 2.517 1.85 1.85.284-.285-.016-1.05-.667-1.7zm30.274 1.285c.316-.512.118-1.213-.441-1.559-.56-.345-1.016.074-1.016.931 0 1.757.6 2.015 1.457.628zm10.348-4.328c.171-2.662-.129-4.74-.684-4.74-.543 0-1.2-1.238-1.458-2.75-.258-1.513-.401.025-.317 3.417.083 3.392-.185 6.505-.597 6.917-1.341 1.341-.79 2.57 1.001 2.23 1.319-.25 1.825-1.501 2.055-5.074zm21.11-.9c-1.517-2.834-1.957-1.88-1.223 2.644.561 3.46.72 3.636 1.464 1.623.503-1.357.406-3.058-.241-4.268zm59.375 3.16c-.288-1.1-.868-2-1.29-2-1.162 0-1.927-3.859-.837-4.222 1.022-.34.07-3.779-1.047-3.779-1.525 0-.472 7.95 1.315 9.924 2.327 2.571 2.513 2.579 1.859.076zm-156.79-2c.34-.55.141-1-.441-1s-1.06.45-1.06 1 .2 1 .442 1 .719-.45 1.059-1zm9.5 0c-3.612-1.157-6.215-1.157-5.5 0 .34.55 2.279.954 4.309.9 3.315-.09 3.436-.182 1.19-.9zm6.25.337c-.688-.277-1.813-.277-2.5 0s-.125.504 1.25.504 1.937-.227 1.25-.504zm78.75-1.96c0-2.218-.232-2.43-1.5-1.378-.825.685-1.5 1.865-1.5 2.623 0 .757.675 1.377 1.5 1.377.952 0 1.5-.958 1.5-2.622zm-13.584-1.02c.527-1.372.38-1.434-.893-.377-1.735 1.44-1.916 2.02-.63 2.02.491 0 1.177-.74 1.523-1.642zm-70.966-1.48c.522-.483 1.653-.878 2.513-.878 2.912 0 3.74-4.068 1.858-9.13-.947-2.546-2.399-7.548-3.226-11.116-1.814-7.822-5.203-13.977-7.457-13.542-2.056.396-3.176 5.62-3.813 17.788l-.497 9.5 5.086-.346c3.233-.22 5.086.053 5.086.75 0 .603-1.18 1.096-2.623 1.096-2.119 0-2.402.266-1.474 1.383 1.267 1.528-.392 2.617-3.985 2.617-1.21 0-1.918.694-1.918 1.877 0 1.643.593 1.815 4.75 1.379 2.612-.275 5.177-.895 5.7-1.378zm-2.181-10.57c.973-.254 2.323-.237 3 .036.677.274-.12.482-1.77.461-1.65-.02-2.203-.244-1.23-.498zm52.645 6.942c-.074-4.102-.198-4.376-.91-2.013-.743 2.466-.353 6.763.612 6.763.211 0 .345-2.137.298-4.75zm3.086 1.75c0-.55-.45-1-1-1s-1 .45-1 1 .45 1 1 1 1-.45 1-1zm6.707-4.238c-.239-1.244-.444-.462-.455 1.738s.185 3.218.435 2.262.26-2.756.02-4zm-77.014.507c-.253-.973-.477-.419-.498 1.231-.02 1.65.187 2.447.461 1.77.274-.678.29-2.028.037-3zm86.99 1.544c-.319-.798-.556-.56-.604.604-.043 1.054.193 1.645.525 1.313.333-.333.368-1.195.08-1.917zm3.317 1.187c0-.55-.198-1-.44-1s-.72.45-1.06 1c-.34.55-.141 1 .441 1s1.06-.45 1.06-1zm68-.94c0-1.962-1.69-3.702-2.658-2.735-.785.785.65 4.675 1.725 4.675.513 0 .933-.873.933-1.94zm-45.045-4.81-.045-4.75-1.46 3-1.458 3 .584-3c.896-4.598.734-7.59-.476-8.8-1.424-1.423-1.526 9.05-.125 12.735 1.549 4.073 3.03 2.987 2.98-2.185zm-38.969 2.5c-.027-2.445-1.225-5.72-1.933-5.282-.995.614-.034 6.532 1.06 6.532.488 0 .88-.562.873-1.25zm-33.908-7.05c-.792-.791-1.094-.532-1.094.94 0 2.644 1.399 4.047 1.844 1.85.19-.933-.148-2.188-.75-2.79zm128.91 1.807c0-1.375-.388-2.5-.861-2.5s-.647 1.125-.384 2.5.65 2.5.862 2.5c.21 0 .383-1.125.383-2.5zm6.527-1.248c-.795-3.167-1.278-3.835-2.147-2.966-.947.948.51 5.714 1.748 5.714.688 0 .835-1.01.4-2.748zm-174.7-2.87c0-3.202-.32-4.298-1.042-3.575-.922.922-.327 8.191.67 8.191.205 0 .372-2.077.372-4.616zm93.85 1.429c-.319-.798-.556-.56-.604.604-.043 1.054.193 1.645.525 1.313.333-.333.368-1.195.08-1.917zm64.5-.03c-.717-.717-1.183-.776-1.183-.15 0 1.335 1.182 2.518 1.85 1.85.284-.283-.016-1.049-.667-1.7zm-115.5-.97c-.319-.797-.556-.56-.604.605-.043 1.054.193 1.645.525 1.312.333-.332.368-1.194.08-1.916zm26-2.062c-.607-2.337-1.253-3.54-1.434-2.671-.326 1.564 1.315 6.921 2.12 6.921.23 0-.078-1.912-.686-4.25zm9.318 2.365c0-2.664-2.61-8.556-3.297-7.444-.314.509-.158 1.578.347 2.377.506.799.926 2.69.934 4.202.008 1.513.466 2.75 1.016 2.75s1-.848 1-1.885zm-15.19-5.44c1.196-.316 1.032-.48-.562-.562-1.846-.095-2.225.378-2.114 2.634.112 2.264.212 2.364.562.562.234-1.204 1.185-2.389 2.114-2.634zm10.745-.428c-.853-6.042-1.503-8.25-2.427-8.25-.902 0 .128 10.016 1.209 11.75 1.484 2.381 1.885 1.229 1.217-3.5zm79.943.75c-.907-1.752-1.884-2.95-2.172-2.662-.288.288.284 1.891 1.272 3.562 2.331 3.948 3.04 3.24.9-.9zm-65.201-4.1c-.466-.466-.623 1.053-.348 3.377.487 4.12.507 4.14.847.846.19-1.857-.034-3.758-.5-4.224zm82.799 2.382c-.925-1.59-1.04-1.602-1.068-.113-.016.917.294 2.492.69 3.5.658 1.673.75 1.682 1.068.113.19-.945-.12-2.52-.69-3.5zm-175.34-10.77c-.233-4.594-.357-4.82-1.524-2.777-2.18 3.812-3.305 11.967-2.075 15.029 1.098 2.732 1.112 2.718 2.478-2.252.756-2.75 1.26-7.25 1.12-10zm50.93 12.312c-.32-.798-.557-.56-.605.604-.043 1.054.193 1.645.526 1.313.332-.333.367-1.195.079-1.917zm-7.554-2.083c-1.665-1.665-2.608-.011-1.059 1.856.938 1.13 1.48 1.264 1.755.437.22-.659-.094-1.69-.696-2.293zm18.554-.917c-.32-.798-.556-.56-.604.604-.044 1.054.192 1.645.525 1.313.332-.333.368-1.195.079-1.917zm-23.47-1.813c.242-1.65.068-3-.387-3s-.827 1.35-.827 3 .174 3 .387 3c.212 0 .585-1.35.827-3zm45.47.813c-.32-.798-.556-.56-.604.604-.044 1.054.192 1.645.525 1.313.332-.333.368-1.195.079-1.917zm-31.581-2.53c-.96-1.65-1.043-1.628-1.071.296-.034 2.314 1.235 4.12 1.77 2.516.187-.563-.127-1.829-.7-2.812zm16.582 1.525c-.32-.798-.556-.561-.604.604-.044 1.054.192 1.645.525 1.312.332-.332.368-1.194.079-1.916zm-7.683-.93c0-.485-.653-.883-1.45-.883-.798 0-1.91-.787-2.47-1.75-1.136-1.949-1.353-.868-.48 2.384.403 1.504 1.137 1.986 2.486 1.633 1.052-.275 1.914-.898 1.914-1.383zm36.642-1.633c-.341-2.062-.685-6.9-.765-10.75l-.144-7-.78 5c-.428 2.75-.817 7.588-.866 10.75-.071 4.685.215 5.75 1.544 5.75 1.328 0 1.515-.696 1.01-3.75zm-25.544-4.312c-.726-3.23-.671-4.613.208-5.24.837-.596.746-.729-.306-.444-2.2.594-2.823 6.723-1.017 9.991 1.906 3.45 2.415 1.483 1.115-4.307zm8.015 3.775c-.817-.817-1.113-.705-1.113.42 0 1.988 1.345 3.333 1.842 1.842.21-.632-.118-1.65-.73-2.262zm8.57 1.1c-.319-.798-.556-.561-.604.604-.043 1.054.193 1.645.525 1.312.333-.332.368-1.194.08-1.916zm68.23-.975c-.79-1.476-1.405-1.862-1.675-1.052-.44 1.318 1.7 4.61 2.485 3.824.241-.241-.123-1.488-.81-2.772zm6.477-1.264c-1.009-2.629-2.39-1.763-2.39 1.498 0 2.727.167 2.903 1.497 1.574.823-.824 1.225-2.206.893-3.072zm-98.243-.714-.967-3.36-.09 3.083c-.05 1.696.21 3.384.576 3.75 1.257 1.257 1.447-.116.48-3.473zm-18.57-3.403c-.338-1.351-1.024-2.457-1.523-2.457-1.636 0-1.736 3.46-.154 5.327 1.804 2.129 2.594.778 1.678-2.87zm31.027.814c-1.017-1.017-1.855.514-1.021 1.863.63 1.02.865 1.02 1.204.004.232-.694.15-1.535-.183-1.867zm-16.667-5.648c-.93-.864-1.066-.548-.587 1.377.343 1.375.7 3.4.796 4.5.096 1.1.36.48.587-1.377.23-1.88-.123-3.875-.796-4.5zm32.063 3.377c0-2.978-.404-4-1.58-4-1.258 0-1.437.661-.882 3.25 1.304 6.08 2.462 6.433 2.462.75zm-57.53-9.537c.599-8.821.584-8.9-.916-4.963-.838 2.2-1.517 6.925-1.508 10.5.022 9.318 1.671 5.55 2.424-5.537zm31.748 7.355c-.626-.626-.766.032-.394 1.856.427 2.093.679 2.345.97.97.216-1.02-.043-2.293-.576-2.826zm96.857.907c-.124-1.195-1.495-.964-1.925.325-.22.66.14 1.02.8.8s1.166-.726 1.125-1.125zm-121.09-2.975c-.008-1.237-.284-3.258-.614-4.49l-.6-2.24-1.886 2.398c-2.284 2.903-2.292 3.034-.315 5.01 2.201 2.202 3.43 1.958 3.415-.678zm5.013.75c0-.825-.435-1.5-.968-1.5-.533 0-.71.675-.393 1.5.316.825.752 1.5.968 1.5.217 0 .393-.675.393-1.5zm105.08-3.815c-1.295-1.295-1.503 1.117-.343 3.984.652 1.612.782 1.549 1.085-.534.189-1.3-.145-2.853-.741-3.45zm-99.085 2.115c0-1.615-.295-1.904-1.112-1.087-.612.612-.81 1.602-.441 2.2 1.034 1.674 1.553 1.302 1.553-1.113zm108 1.26c0-.518-.45-1.22-1-1.56-.55-.34-1-1.566-1-2.725s-.267-1.84-.595-1.513c-.868.868.59 6.738 1.675 6.738.506 0 .92-.423.92-.94zm-95-2.06c0-.55-.45-1-1-1s-1 .45-1 1 .45 1 1 1 1-.45 1-1zm-10.744-3.44c-.49-2.568-4.256-6.74-4.256-4.715 0 .635.415 1.155.92 1.155.507 0 1.218 1.35 1.58 3 .784 3.567 2.432 4.093 1.757.56zm18.351.858c-.333-.87-.606-2.246-.606-3.059 0-.812-.39-1.236-.866-.942-1.14.705-.188 5.583 1.09 5.583.544 0 .716-.712.383-1.582zm14.393.582c0-.55-.45-1-1-1s-1 .45-1 1 .45 1 1 1 1-.45 1-1zm4.2-1.2c-.641-.641-1.498-.835-1.904-.429-.406.406-.089 1.139.704 1.63 1.868 1.153 2.711.31 1.2-1.2zm-8.507-2.53c-.253-.974-.477-.42-.498 1.23-.02 1.65.188 2.446.461 1.77.274-.678.291-2.028.038-3zm-36.233.48c-.37-1.237-1.3-2.909-2.067-3.714-1.218-1.28-1.393-1.248-1.393.263 0 2.04 2.125 5.701 3.308 5.701.455 0 .524-1.012.152-2.25zm-56.46-.25c0-.825-.45-1.5-1-1.5s-1 .675-1 1.5.45 1.5 1 1.5 1-.675 1-1.5zm158.6-1.229c-1.016-1.017-1.855.514-1.02 1.863.63 1.02.865 1.02 1.204.004.231-.694.149-1.535-.183-1.867zm-90.999 1.012c-1.34-.343-1.535-.708-.666-1.245.915-.565.825-.915-.355-1.367-1.114-.428-1.583-.025-1.583 1.36 0 1.41.639 1.936 2.25 1.853 1.906-.098 1.96-.19.355-.601zm7.396-.283c0-.55-.477-1-1.06-1-.582 0-.78.45-.44 1s.816 1 1.059 1c.242 0 .44-.45.44-1zm13.683-3.187c-.32-.798-.556-.561-.604.604-.044 1.054.192 1.645.525 1.312.332-.332.368-1.194.079-1.916zm-15.683-.254c0-.242-.45-.719-1-1.059-.55-.34-1-.141-1 .441s.45 1.06 1 1.06 1-.2 1-.442zm8.124-2.826c-.988-.98-1.103-.865-.56.56.376.986.935 1.541 1.243 1.234.307-.308 0-1.115-.683-1.794zm-22.462-1.983c-.278-.687-.505-.125-.505 1.25s.227 1.938.505 1.25.277-1.812 0-2.5zm27.326-4.474c-1.077-1.679-1.108-1.676-.564.056.316 1.007.643 3.032.725 4.5l.15 2.668.414-2.724c.228-1.499-.098-3.524-.725-4.5zm-79.988 3.724c0-.55-.45-1-1-1s-1-.75-1-1.667c0-.916-.266-1.4-.592-1.075-.834.834.533 4.742 1.66 4.742.512 0 .932-.45.932-1zm30.662-2.25c-.278-.687-.505-.125-.505 1.25s.227 1.938.505 1.25.277-1.812 0-2.5zm13.338.75c0-.825-.436-1.5-.969-1.5-.533 0-.71.675-.393 1.5.317.825.753 1.5.969 1.5.216 0 .393-.675.393-1.5zm106-.107c0-.216-.675-.393-1.5-.393s-1.5.436-1.5.969c0 .533.675.71 1.5.393.825-.317 1.5-.753 1.5-.969zm-92.015-1.143c-.008-.412-.452-1.425-.985-2.25-.784-1.213-.972-1.07-.985.75-.008 1.238.435 2.25.985 2.25s.993-.337.985-.75zm4.698-1.437c-.319-.798-.556-.561-.604.604-.043 1.054.193 1.645.525 1.312.333-.332.368-1.194.08-1.916zm92.317-.813c0-.55-.198-1-.44-1s-.72.45-1.06 1c-.34.55-.141 1 .441 1s1.06-.45 1.06-1zm-99.333-5.336c.481-2.964.283-3.664-1.036-3.664-1.857 0-2.119-2.22-.596-5.066.626-1.169.658-1.934.082-1.934-.524 0-1.665-.273-2.535-.607-1.038-.398-1.582-.054-1.582 1 0 .884.45 1.607 1 1.607s1 1.35 1 3c0 2 .5 3 1.5 3 .825 0 1.5.45 1.5 1s-.45 1-1 1-1 1.44-1 3.2c0 4.22 1.857 2.454 2.667-2.536zm-30.496.336c.21-2.2.032-4-.395-4-.427 0-.776 1.35-.776 3 0 1.725-.531 3.007-1.25 3.015-.834.01-.75.339.25.985.825.533 1.565.976 1.645.985.08.008.316-1.785.526-3.985zm35.438-7.083.11-8.917h-2.86c-1.572 0-2.859.188-2.859.418 0 .23-.276 1.139-.614 2.019-.524 1.366-.217 1.45 2.099.57l2.712-1.032-.257 5.262c-.374 7.65-.048 12.205.81 11.347.413-.412.8-4.762.86-9.666zm91.944 9.169c-.31-.503-.061-1.083.555-1.288.691-.23.128-1.89-1.472-4.336-3.527-5.393-8.624-10.807-9.423-10.008-.36.36-.192.968.374 1.35 1.741 1.177 4.415 5.557 4.377 7.169-.024 1.026-.774.625-2.287-1.223-1.239-1.512-2.832-2.75-3.54-2.75-1.932 0 2.99 5.771 5.261 6.168 1.044.183 2.394 1.232 3 2.332.995 1.805 2.6 3.445 3.411 3.485.17.008.055-.396-.256-.9zm-144.1-1c.305-.493-.156-1.168-1.023-1.5-2.228-.856-2.412-.788-2.412.895 0 1.622 2.531 2.067 3.435.605zm133.91-1.648c-.325-.849-.806-1.329-1.069-1.067-.262.262-.18.957.183 1.543.986 1.596 1.562 1.286.886-.476zm-105.68-2.707c-.277-.688-.504-.125-.504 1.25s.227 1.937.504 1.25.278-1.813 0-2.5zm37.338-.941c0-1.507-4.058-.82-4.677.792-.909 2.368 1.889 3.747 3.427 1.689.688-.92 1.25-2.036 1.25-2.481zm63.73 3.587c-.333-.333-1.196-.368-1.918-.08-.797.32-.56.557.605.605 1.054.043 1.644-.193 1.312-.525zm-138.37-3.89c-.316-.822-.984-1.241-1.486-.931-1.048.648-.207 2.425 1.149 2.425.5 0 .652-.672.336-1.494zm70.691-7.819c.58-2.097 1.34-4.572 1.687-5.5.535-1.428.39-1.49-.944-.407-1.449 1.177-3.82 8.328-3.783 11.413.025 2.117 1.841-1.173 3.04-5.505zm1.945 3.754c0-.793-.45-1.441-1-1.441s-1 .926-1 2.059c0 1.132.45 1.78 1 1.44.55-.34 1-1.266 1-2.058zm1.683.371c-.32-.797-.556-.56-.604.605-.044 1.054.192 1.644.525 1.312.332-.332.368-1.195.079-1.917zm-16.683-.312c0-.825-.177-1.5-.393-1.5-.216 0-.652.675-.969 1.5-.317.825-.14 1.5.393 1.5s.969-.675.969-1.5zm-11.593-3.25c-.299-1.513-.091-3.875.461-5.25 1-2.487 1.005-2.488 1.068-.191.035 1.27.439 2.077.897 1.794 1.245-.77.107-6.749-1.203-6.322-1.395.454-3.153 8.914-2.31 11.113.99 2.577 1.678 1.852 1.087-1.144zm-6.714-1.981c-.254-.973-.478-.42-.498 1.23-.02 1.65.187 2.447.46 1.77.275-.677.291-2.027.038-3zm86.552 1.23c-.263-1.374-.876-2.5-1.362-2.5-.485 0-.883 1.126-.883 2.5 0 1.443.576 2.5 1.361 2.5.913 0 1.204-.823.884-2.5zm-82.36-5.5c.066-1.965-.123-2.178-.885-1-.533.826-.932 3.076-.885 5 .077 3.208.151 3.292.885 1 .44-1.374.838-3.624.885-5zm97.115 6.161c0-.461-1.125-1.352-2.5-1.978-2.647-1.206-3.305-.387-1.3 1.618 1.376 1.377 3.8 1.606 3.8.36zm-76-4.22c0-1.617-.405-2.94-.9-2.94s-.9 1.574-.9 3.497c0 1.924.405 3.247.9 2.941.495-.306.9-1.88.9-3.497zm3 2.06c0-.55-.199-1-.441-1s-.72.45-1.06 1c-.34.55-.14 1 .442 1s1.059-.45 1.059-1zm53.796-2.25c-.19-1.238-.88-2.143-1.534-2.012-.68.136-.945-.4-.62-1.25.546-1.42-1.074-1.995-4.4-1.561-.691.09-1.693-.981-2.225-2.382-1.08-2.839-3.017-3.432-3.017-.923 0 1.33-.272 1.397-1.5.378-2.182-1.81-1.837-.119.75 3.681 1.237 1.818 2.925 3.324 3.75 3.348.825.023 2.625.685 4 1.47 3.67 2.1 5.194 1.86 4.796-.75zm19.204.66c0-.816-4.307-4.336-5.355-4.377-.47-.018.204 1.084 1.5 2.45 2.257 2.38 3.855 3.178 3.855 1.927zm-100.96-6.77c-.708-.707-1.01.052-.967 2.42.06 3.241.121 3.304 1.03 1.03.64-1.602.62-2.767-.063-3.45zm21.899 2.62c-.063-2.437-.168-2.523-.93-.75-1.174 2.731-1.174 3.5 0 3.5.55 0 .968-1.238.93-2.75zm66.07 1.25c0-.825-.64-1.5-1.424-1.5-2.945 0-7.574-5.053-7.64-8.34-.058-2.895-.139-2.971-.967-.91-.498 1.237-1.707 2.264-2.687 2.281-1.613.03-1.592.169.218 1.466 2.492 1.788 3.194 2.339 7.326 5.754 3.75 3.097 5.174 3.441 5.174 1.249zM77.857 220.7c-.32-.798-.556-.56-.604.604-.044 1.055.192 1.645.525 1.313.332-.332.368-1.195.079-1.917zm16.317.629c0-.858-.45-1.281-1-.941s-1 1.041-1 1.559c0 .517.45.94 1 .94s1-.7 1-1.558zm-33.412-6.836c-.049-4.067-.426-7.19-.839-6.941-1.282.776-.615 14.336.705 14.336.122 0 .182-3.328.134-7.395zm9.411 4.836c0-.793-.45-1.441-1-1.441s-1 .926-1 2.059c0 1.132.45 1.78 1 1.44.55-.34 1-1.266 1-2.058zm81.2-1.641c-.641-.642-1.498-.835-1.904-.43-.406.406-.089 1.14.704 1.63 1.868 1.154 2.711.31 1.2-1.2zm-118.5-4.04c-.239-1.244-.444-.462-.455 1.738s.185 3.218.435 2.262.26-2.756.02-4zm34.147-10.29c-.145-7.886-.643-14.102-1.108-13.815-.758.468-1.054 6.583-.72 14.843a566.5 566.5 0 0 1 .238 8.692c.063 3.13.506 5.45.984 5.154.479-.295.751-6.989.606-14.874zm-46.869 11.278c-.012-1.82-.2-1.963-.984-.75-1.253 1.938-1.253 3 0 3 .55 0 .993-1.013.984-2.25zm54.473 1.319c.317-.512.118-1.214-.44-1.56-.56-.345-1.017.074-1.017.932 0 1.756.6 2.015 1.457.628zm9.236-4.8c-.254-.973-.478-.42-.498 1.23-.02 1.65.187 2.447.46 1.77.275-.677.291-2.027.038-3zm-27.004-2.02c-.252-.962-.457-.174-.457 1.75s.205 2.713.457 1.75c.251-.962.251-2.537 0-3.5zm21.973 1.5c-.278-.687-.504-.124-.504 1.25s.226 1.938.504 1.25.277-1.812 0-2.5zm-3.662 1.25c0-.55-.477-1-1.06-1-.582 0-.78.45-.44 1s.816 1 1.059 1c.242 0 .44-.45.44-1zm58.183-1.216c-.718-.718-1.184-.777-1.184-.15 0 1.335 1.183 2.517 1.85 1.85.284-.284-.016-1.05-.666-1.7zm-60.515-4.448c-1.023-1.023-2.669.795-2.669 2.946v2.164l1.602-2.288c.881-1.258 1.361-2.528 1.067-2.822zm54.444 1.377c-.817-.817-1.113-.705-1.113.421 0 1.988 1.345 3.333 1.842 1.842.21-.633-.118-1.65-.73-2.263zm-46.045-5.02c1.197-.313 1.949-1.397 1.976-2.849.024-1.289.646-4.03 1.382-6.093 1.45-4.062.563-5.166-1.205-1.5-.597 1.237-1.116 1.687-1.153 1-.14-2.579-1.931-1.134-1.86 1.5.041 1.53-1.318 4.808-3.067 7.395-3.425 5.065-3.797 6.464-1.89 7.114.693.236 1.835-1.016 2.567-2.818.724-1.784 2.187-3.47 3.25-3.749zm-29.384 3.12c-.32-.798-.557-.56-.605.604-.043 1.055.193 1.645.526 1.313.332-.332.367-1.195.079-1.917zm31 0c-.32-.798-.557-.56-.605.604-.043 1.055.193 1.645.526 1.313.332-.332.367-1.195.079-1.917zm39.317-2.812c0-1.1-.45-2-1-2s-1 .9-1 2 .45 2 1 2 1-.9 1-2zm-52.317-1.188c-.32-.798-.557-.56-.605.604-.043 1.055.193 1.645.526 1.313.332-.332.367-1.195.079-1.917zm-6.976-4.05c-.24-1.245-.444-.462-.455 1.738s.184 3.217.435 2.261c.25-.956.259-2.756.02-4zm54.405 1.95c-.817-.817-1.113-.705-1.113.421 0 1.988 1.345 3.333 1.842 1.842.21-.633-.117-1.65-.73-2.263zm-59.112 1.847c0-.243-.45-.72-1-1.06-.55-.34-1-.14-1 .442s.45 1.059 1 1.059 1-.199 1-.441zm18-5.118c0-3.967-.76-4.246-3.812-1.402-2.385 2.222-3.048 3.92-.803 2.056 1.105-.917 1.514-.631 2.029 1.419.882 3.512 2.586 2.146 2.586-2.073zm24 .859c0-2.011-.29-2.411-1.133-1.568-.623.623-.862 1.838-.531 2.7.915 2.386 1.664 1.876 1.664-1.132zm-56.017-2.61c-.013-1.782-.197-1.91-.985-.691-1.273 1.97-1.273 4.287 0 3.5.55-.34.993-1.604.985-2.81zm69.015 1.368c0-1.068-.45-2.22-1-2.56-.567-.35-1 .49-1 1.942 0 1.407.45 2.559 1 2.559s1-.874 1-1.941zm-104-3.2c0-1.176.787-2.737 1.75-3.467 1.57-1.192 1.416-1.332-1.5-1.36-1.788-.018-3.25.418-3.25.968s.387 1 .861 1 .646 1.125.384 2.5c-.28 1.46-.014 2.5.638 2.5.614 0 1.117-.963 1.117-2.14zm49.985-1.232c-.01-.661-.373-.563-.88.236-.728 1.15-.938 1.15-1.347 0-.266-.75-.826-1.045-1.245-.657-.418.39-.474 1.452-.125 2.363.516 1.343.917 1.423 2.124.42.818-.679 1.481-1.742 1.473-2.362zm-39.292-1.358c-.254-.973-.478-.42-.498 1.23-.02 1.65.187 2.447.46 1.77.275-.677.291-2.027.038-3zm7.307 1.824c0-.498-.9-.67-2-.383s-2 .695-2 .906.9.384 2 .384 2-.408 2-.907zm42.349-.561c.31-.808.133-1.734-.393-2.06-.526-.324-.957.336-.957 1.469 0 2.414.557 2.658 1.35.59zm5.343-3.263c-.253-.973-.477-.42-.498 1.23-.02 1.65.187 2.447.461 1.77s.29-2.027.037-3zm38.307.73c0-.55-.45-1-1-1s-1 .45-1 1 .45 1 1 1 1-.45 1-1zm-88.317-3.187c-.319-.798-.556-.56-.604.604-.043 1.055.193 1.645.525 1.313s.368-1.195.08-1.917zm58 0c-.319-.798-.556-.56-.604.604-.043 1.055.193 1.645.525 1.313.333-.332.368-1.195.08-1.917zm-6-4c-.319-.798-.556-.56-.604.604-.043 1.055.193 1.645.525 1.313.333-.332.368-1.195.08-1.917zm20.317.688c0-.825-.45-1.5-1-1.5s-1 .675-1 1.5.45 1.5 1 1.5 1-.675 1-1.5zm-25.086-3.5c-.036-.99-.347-.82-.914.5-1.181 2.749-1.181 4.328 0 2.5.533-.825.945-2.175.914-3zm-23.93-1.25c.008-.963-.408-1.75-.925-1.75-1.546 0-2.233 1.878-1.514 4.14.53 1.67.86 1.828 1.549.742.481-.76.882-2.17.89-3.132zm19.183-.983c-.89-.89-1.15-.347-1.1 2.283.064 3.24.135 3.31 1.168 1.167.813-1.688.796-2.587-.068-3.45zm-56.667 1.233c.34-.55.168-1-.382-1s-1.278.45-1.618 1c-.34.55-.168 1 .382 1s1.278-.45 1.618-1zm52.5-2.5c0-1.556-.566-2.5-1.5-2.5-1.614 0-1.853.916-.893 3.418.935 2.434 2.393 1.875 2.393-.918zm32.985-1.75c.008-.413-.434-.75-.984-.75s-.993 1.012-.985 2.25c.012 1.819.2 1.963.985.75.533-.825.976-1.838.984-2.25zm-42.985.132c0-.55-.45-.722-1-.382s-1 1.068-1 1.618.45.722 1 .382 1-1.068 1-1.618zm31.914-4.382c-.047-2.576-.176-2.718-.914-1-.473 1.1-.884 3.125-.914 4.5-.044 1.97.15 2.182.914 1 .533-.825.945-2.85.914-4.5zm-10.624 2.498c.288-1.1.116-1.749-.383-1.44-.499.307-.907 1.208-.907 2 0 2.07.68 1.775 1.29-.56zm-5.711-5.754c-.857-.856-1.344-.08-2.05 3.258l-.633 2.998 1.63-2.839c.897-1.56 1.37-3.098 1.053-3.417zm19.084 2.506c-.278-.688-.505-.125-.505 1.25s.227 1.937.505 1.25.277-1.813 0-2.5zm-39.066-3.88.438-4.37-1.502 4.5c-1.79 5.362-1.911 6.778-.454 5.32.593-.593 1.276-3.045 1.518-5.45zm-3.935 1.88c-.277-.688-.504-.125-.504 1.25s.227 1.937.504 1.25c.278-.688.278-1.813 0-2.5zm36.338-1.31c0-.792-.45-1.44-1-1.44s-1 .926-1 2.059c0 1.132.45 1.78 1 1.44.55-.34 1-1.266 1-2.058zm13 .5c0-.517-.45-.94-1-.94s-1 .701-1 1.559c0 .857.45 1.28 1 .94s1-1.04 1-1.558zm-11.319-3.14c-.319-.797-.556-.56-.604.605-.043 1.054.193 1.645.525 1.312.333-.332.368-1.195.08-1.916zm6.905-1.557c-1.075-1.075-1.646.43-.891 2.352.708 1.802.762 1.805 1.112.065.202-1.006.103-2.093-.22-2.417zm-69.905-.44c-.319-.798-.556-.56-.604.604-.043 1.055.193 1.645.526 1.313s.367-1.195.079-1.917zm38.317-.979c0-1.192-.313-1.854-.695-1.471-1.08 1.08-1.233 3.638-.216 3.638.501 0 .911-.975.911-2.167zm-5.607-.415c.895-2.331.738-4.617-.273-3.992-1.133.7-2.084 5.574-1.088 5.574.415 0 1.028-.712 1.361-1.582zm33.974-2.851c.096-2.03-.306-3.567-.932-3.567-1.23 0-1.552 2.301-.822 5.868.659 3.215 1.55 2.046 1.755-2.301zm-22.579.296c-.25-.749-.702-.296-1.056 1.057-.435 1.663-.305 2.053.437 1.311.581-.58.86-1.647.62-2.368zm18.346-2.517c-.94-1.619-1.077-1.482-1.103 1.104-.022 2.151.268 2.65 1.073 1.846.791-.79.8-1.627.03-2.95zm-56.45.466c-.32-.798-.557-.56-.605.604-.043 1.055.193 1.645.526 1.313s.367-1.195.079-1.917zm24.316-.43c0-.825-.45-1.222-1-.882-.55.34-1 1.293-1 2.118s.45 1.222 1 .882c.55-.34 1-1.293 1-2.118zm26 1.618c0-.55-.476-1-1.059-1-.582 0-.78.45-.44 1s.816 1 1.059 1c.242 0 .44-.45.44-1zm-17.714-4.99c.29-1.109.12-2.016-.379-2.016s-.906.413-.906.918c0 .505-.302 1.704-.67 2.664-.421 1.098-.28 1.505.38 1.098.576-.357 1.286-1.556 1.575-2.664zm-30.603-.2c-.319-.798-.556-.561-.604.604-.043 1.054.193 1.645.526 1.312s.367-1.194.079-1.916zm26.988-8.475c-1.165-1.165-3.606 2.983-3.625 6.162-.018 2.947.02 2.925 2.15-1.235 1.192-2.329 1.856-4.546 1.475-4.927zm3.329 1.221c0-1.342-.45-2.719-1-3.059-.584-.36-1 .657-1 2.441 0 1.683.45 3.06 1 3.06s1-1.1 1-2.442zm5.5-.559c0-.733-.563-1.52-1.25-1.75-.744-.248-1.25.461-1.25 1.75s.506 1.998 1.25 1.75c.687-.229 1.25-1.016 1.25-1.75zm11.5 1c0-.55-.45-1-1-1s-1 .45-1 1 .45 1 1 1 1-.45 1-1zm-8.755-4.5c-.263-1.375-.876-2.5-1.362-2.5-1.029 0-1.196 3.354-.216 4.334 1.369 1.369 2.04.588 1.578-1.834zm-6.562-2.687c-.32-.798-.556-.561-.604.604-.043 1.054.193 1.645.525 1.312.332-.332.368-1.194.08-1.916zm15.666.72c.31-.808.133-1.735-.393-2.06-.526-.325-.956.336-.956 1.468 0 2.415.556 2.658 1.35.591zm-48.349-1.033c0-.825-.436-1.5-.969-1.5s-.71.675-.393 1.5.753 1.5.97 1.5c.215 0 .392-.675.392-1.5zm7.683-.687c-.319-.798-.556-.561-.604.604-.043 1.054.193 1.645.525 1.312s.368-1.194.08-1.916zm27.678-4.063c-.692-4.44-3.775-9.506-4.788-7.867-.789 1.275 1.113 6.117 2.402 6.117.564 0 1.025 1.35 1.025 3s.456 3 1.012 3c.628 0 .76-1.613.35-4.25zm-32.36 2.25c0-.55-.45-1-1-1s-1 .45-1 1 .45 1 1 1 1-.45 1-1zm12.984-2.309c.008-.445-.434-.53-.984-.19s-.994 1.378-.985 2.308c.013 1.458.15 1.484.985.191.533-.825.976-1.864.984-2.309zm5.699 1.122c-.32-.798-.557-.561-.605.604-.043 1.054.193 1.645.526 1.312.332-.332.367-1.194.079-1.916zm9.301-1.063c.008-.412-.434-.75-.984-.75s-.994 1.013-.985 2.25c.012 1.82.2 1.963.985.75.533-.825.976-1.837.984-2.25zm-19.984-.31c0-.857-.457-1.276-1.016-.93-.56.345-.758 1.046-.441 1.558.857 1.387 1.457 1.129 1.457-.628zm41 .56c0-.55-.198-1-.44-1s-.72.45-1.06 1c-.34.55-.141 1 .441 1s1.06-.45 1.06-1zm-10.31-4.75c-.252-.963-.458-.176-.458 1.75s.206 2.712.457 1.75c.252-.963.252-2.538 0-3.5zm2.972 1.5c-.277-.688-.504-.126-.504 1.25s.227 1.937.504 1.25.278-1.813 0-2.5zm-16.662.19c0-1.132-.45-1.78-1-1.44-.55.34-1 1.266-1 2.058 0 .793.45 1.441 1 1.441s1-.926 1-2.059zm-13.015-3.2c.013-1.508-.269-1.58-1.985-.509-2.257 1.41-2.624 3.385-.75 4.035 1.483.514 2.714-1.073 2.735-3.525zm6.015 1.2c0-1.067-.45-1.94-1-1.94s-1 1.15-1 2.558c0 1.452.433 2.292 1 1.941.55-.34 1-1.491 1-2.559zm-2-4.5c0-.857-.45-1.28-1-.94s-1 1.04-1 1.558.45.941 1 .941 1-.701 1-1.559zm19.662-2.69c-.277-.688-.504-.126-.504 1.25s.227 1.937.504 1.25.278-1.813 0-2.5zm-21.662.131c0-.55-.45-.722-1-.382s-1 1.068-1 1.618.45.722 1 .382 1-1.068 1-1.618zm6.985-1.69c-.013-1.458-.15-1.484-.984-.192-1.266 1.959-1.266 3.282 0 2.5.55-.34.993-1.379.984-2.309zm4.12-3.192-.885-4.5-.11 4.584c-.06 2.52.219 4.911.62 5.312 1.19 1.191 1.316-.613.375-5.396zm7.896 1.8c0-2.326-.3-2.9-1.1-2.1-.604.604-.799 2.044-.432 3.2.955 3.008 1.532 2.594 1.532-1.1zm7.604.471c-1.017-1.016-1.855.514-1.021 1.863.63 1.02.865 1.02 1.204.004.231-.694.15-1.535-.183-1.867zm-31.604-1.77c0-1.894-1.086-1.903-3.56-.033-1.858 1.407-1.824 1.47.81 1.5 1.792.021 2.75-.49 2.75-1.468zm3.5-2.5c-.484-.784-1.06-.842-1.726-.175-.55.55-.673 1.528-.274 2.174.484.783 1.059.841 1.726.175.55-.55.673-1.529.274-2.175zm17.075-1.454c-.366-1.95-1.064-3.547-1.55-3.547-.488 0-1.08-1.012-1.32-2.25-.404-2.103-.44-2.087-.537.25-.057 1.375.556 3.374 1.364 4.441.807 1.068 1.468 2.83 1.468 3.917 0 1.087.28 1.697.62 1.356.341-.341.32-2.216-.045-4.167zm-13.575 1.453c0-.55-.199-1-.441-1s-.72.45-1.06 1c-.34.55-.14 1 .442 1s1.059-.45 1.059-1zm19.825-7.032c-1.537-3.472-3.335-3.997-2.456-.718.332 1.238.61 2.614.617 3.06.008.444.463.53 1.013.19.58-.359 1.063.77 1.15 2.691.14 3.073.18 3.11.57.527.23-1.53-.172-4.118-.894-5.75zm-14.163 3.782c-.278-.687-.505-.125-.505 1.25s.227 1.938.505 1.25.277-1.812 0-2.5zm21-2c-.278-.687-.505-.125-.505 1.25s.227 1.938.505 1.25.277-1.812 0-2.5zm-27.881-.2c.235-.235.247-.965.028-1.623-.28-.84-.886-.709-2.033.437-1.485 1.486-1.776 1.491-3.205.063s-1.571-1.372-1.571.625c0 1.934.379 2.12 3.177 1.56 1.747-.349 3.369-.827 3.604-1.062zm3.849-.802c-.332-1.237-.61-2.887-.617-3.667-.024-2.47-1.252-.29-1.62 2.877-.264 2.266.052 3.04 1.243 3.04 1.168 0 1.435-.604.994-2.25zm5.062-4.48c-.253-.974-.477-.42-.498 1.23-.02 1.65.188 2.446.461 1.77.274-.678.291-2.028.037-3zm-1.693-3.329c0-1.132-.45-1.78-1-1.44-.55.34-1 1.266-1 2.058 0 .793.45 1.441 1 1.441s1-.926 1-2.059zm-21.317-3.133c-.319-.798-.556-.56-.604.604-.043 1.055.193 1.645.526 1.313s.367-1.195.079-1.917zm35.317-.812c0-.55-.198-1-.44-1s-.72.45-1.06 1c-.34.55-.141 1 .441 1s1.06-.45 1.06-1zm-10.015-4.25c.008-.963-.434-1.75-.984-1.75s-.993 1.462-.985 3.25c.012 2.466.25 2.888.985 1.75.533-.825.976-2.288.984-3.25zm25.678 0c-.277-.688-.504-.125-.504 1.25s.227 1.937.504 1.25.278-1.813 0-2.5zm-18.979.062c-.319-.798-.556-.56-.604.604-.043 1.055.193 1.645.526 1.313.332-.332.367-1.195.078-1.917zm6-1c-.319-.798-.556-.56-.604.604-.043 1.055.193 1.645.526 1.313.332-.332.367-1.195.078-1.917zm-33.753-.062c-.038-.688-.457-2.15-.93-3.25-.72-1.676-.87-1.474-.929 1.25-.039 1.787.38 3.25.93 3.25s.968-.563.93-1.25zm-8.267-6c-.277-.688-.504-.125-.504 1.25s.227 1.937.504 1.25c.278-.688.278-1.813 0-2.5zm22.338-2.31c0-.792-.45-1.44-1-1.44s-1 .926-1 2.059c0 1.132.45 1.78 1 1.44.55-.34 1-1.266 1-2.058zm26.683-1.628c-.32-.798-.556-.56-.604.604-.043 1.055.193 1.645.525 1.313.332-.332.368-1.195.08-1.917zm-12.683-1.93c0-.55-.45-.722-1-.382s-1 1.068-1 1.618.45.722 1 .382 1-1.068 1-1.618zm4.662-4.132c-.277-.688-.504-.125-.504 1.25s.227 1.937.504 1.25.278-1.813 0-2.5zm-7.979-.938c-.319-.798-.556-.56-.604.604-.043 1.055.193 1.645.525 1.313.333-.332.368-1.195.08-1.917zm-19.183-1.812c.34-.55-.057-1-.882-1s-1.778.45-2.118 1c-.34.55.057 1 .882 1s1.778-.45 2.118-1zm7.5-2c0-.55-.45-1-1-1s-1 .45-1 1 .45 1 1 1 1-.45 1-1zm-15-5.5c0-1.375-.172-2.5-.383-2.5-.211 0-.599 1.125-.862 2.5-.262 1.375-.09 2.5.384 2.5s.861-1.125.861-2.5zm12.97-2.941c-.024-1.645-.201-1.757-.879-.56-.467.826-1.151 2.626-1.521 4-.647 2.403-.612 2.425.879.56.853-1.068 1.538-2.868 1.521-4zm-8.97.823c0-.825-.45-1.222-1-.882-.55.34-1 1.293-1 2.118s.45 1.222 1 .882c.55-.34 1-1.293 1-2.118zm-7.07-3.191c.039-.72-.38-1.031-.93-.691s-.968 1.829-.93 3.309c.064 2.403.163 2.477.93.69.473-1.1.892-2.588.93-3.308zm8.035-6.141c.059-2.405-1.762.159-2.45 3.45l-.629 3 1.522-2.5c.837-1.375 1.538-3.153 1.557-3.95zm6.38 3.743c.812-3.107.192-3.266-1.16-.298-.628 1.378-.754 2.505-.28 2.505s1.122-.993 1.44-2.207zm2.318-1.043c-.278-.688-.505-.125-.505 1.25s.227 1.937.505 1.25.277-1.813 0-2.5zm21.03-1.481c-.253-.973-.477-.42-.497 1.23-.02 1.65.187 2.447.46 1.77.275-.677.291-2.027.038-3zm-40.405-1.27c.288-1.101.115-1.75-.384-1.441-.498.308-.906 1.208-.906 2.001 0 2.07.68 1.775 1.29-.56zm10.353-6.69c-.223-.222-1.025.216-1.783.974-.757.758-1.858 1.218-2.446 1.022-1.425-.475-3.657 4.427-2.376 5.219.53.327.962-.08.962-.905 0-.825.468-1.79 1.04-2.143.677-.418.823.347.418 2.19-.514 2.34-.167 2.067 1.983-1.559 1.434-2.416 2.424-4.575 2.202-4.797zm78.795 7.111c.87-.87 1.283-2.063.919-2.652-.422-.682-1.151-.401-2.01.772-.762 1.042-1.347 1.3-1.347.593 0-.688-.45-.972-1-.632-1.512.934-1.198 3.5.429 3.5.785 0 2.14-.712 3.009-1.581zm-69.908-9.219c-.828-.827-2.534.986-2.534 2.692 0 3.055 1.423 3.36 2.196.47.406-1.519.558-2.942.338-3.162zm-23.533 2.8c0-.55-.199-1-.441-1s-.72.45-1.06 1c-.34.55-.14 1 .442 1s1.059-.45 1.059-1zm-3-2c0-1.1-.45-2-1-2s-1 .9-1 2 .45 2 1 2 1-.9 1-2zm6-1.5c0-.825-.644-1.5-1.43-1.5-.787 0-1.626-1.013-1.864-2.25-.321-1.667-.47-1.426-.57.927-.097 2.258.37 3.308 1.614 3.634.962.251 1.862.51 2 .573s.25-.56.25-1.384zm15-1.5c0-.55-.199-1-.441-1s-.72.45-1.06 1c-.34.55-.14 1 .442 1s1.059-.45 1.059-1zm-24-1c0-.55-.45-1-1-1s-1 .45-1 1 .45 1 1 1 1-.45 1-1zm14.5 0c.34-.55.141-1-.441-1s-1.06.45-1.06 1 .2 1 .442 1 .719-.45 1.059-1zm19-2c.34-.55-.309-1-1.441-1s-2.06.45-2.06 1 .65 1 1.442 1c.792 0 1.719-.45 2.059-1zM29.343 35.65c-.718-.718-1.184-.777-1.184-.15 0 1.335 1.183 2.517 1.85 1.85.285-.284-.015-1.05-.666-1.7zm46.588.404c.6-1.8-1.467-1.422-2.165.396-.373.974-.15 1.431.58 1.188.654-.218 1.367-.93 1.585-1.584zm-56.11-3.437c-.277-.688-.504-.125-.504 1.25s.227 1.937.505 1.25c.277-.688.277-1.813 0-2.5zm7.028-2.5c-.252-.963-.458-.175-.458 1.75s.206 2.712.458 1.75.251-2.538 0-3.5zm-9.705 2c-.008-.413-.451-1.425-.984-2.25-.784-1.213-.973-1.07-.985.75-.008 1.237.435 2.25.985 2.25s.993-.338.984-.75zm65.015-.25c0-.55-.198-1-.44-1s-.72.45-1.06 1c-.34.55-.141 1 .441 1s1.06-.45 1.06-1zm8.683-6.188c-.319-.798-.556-.56-.604.604-.043 1.054.193 1.645.525 1.313.333-.333.368-1.195.08-1.917zm8.699-12.364c.341-.89.174-1.291-.393-.94-.544.335-.989 1.033-.989 1.551 0 1.438.717 1.121 1.382-.611zm318.37 433.85c1.237-.238 3.262-.238 4.5 0 1.237.238.225.433-2.25.433s-3.488-.195-2.25-.433zm-177.75-5.745c-1.375-.813-3.423-1.494-4.55-1.514-1.128-.02-2.498-.483-3.045-1.03-1.482-1.481-25.894-3.269-38.975-2.854-7.39.235-11.317.007-11.101-.644 1.007-3.04 45.966-.861 53.073 2.573 3.04 1.469 6.338 1.947 14.036 2.037 5.534.064 12.987.445 16.562.847 5.968.671 5.559.744-5 .894-6.325.09-13.075.39-15 .667-2.137.307-4.474-.073-6-.976zm-160.71-5.225c2.086-.865 4.098-1.267 4.47-.894 1.082 1.082-1.99 2.542-5.263 2.503l-3-.036 3.793-1.573zm-21.293-.324-2.5-.8 2.5-.085c1.375-.047 3.175.352 4 .885 1.333.861 1.333.96 0 .885-.825-.047-2.625-.445-4-.885zm93-3.384c0-.21.9-.619 2.001-.906 1.1-.288 1.75-.116 1.441.383-.538.87-3.442 1.312-3.442.523zm-73.616-2.53c-2.264-1.027-5.521-2.177-7.239-2.554-3.42-.752-5.253-2.532-2.605-2.532.911 0 3.075.636 4.809 1.413 1.733.778 4.832 1.936 6.887 2.573 3.77 1.17 5.994 3.032 3.573 2.992-.72-.012-3.161-.863-5.425-1.891zm79.084-1.094c1.066-3.511 2.531-4.851 2.531-2.315 0 1.143-.74 2.692-1.644 3.442-1.471 1.222-1.565 1.103-.887-1.127zm-100.47-6c0-1.194 2.72-1.194 5.5 0 1.604.69 1.258.873-1.75.93-2.063.038-3.75-.38-3.75-.93zm357-8.09c-2.154-1.761-2.196-1.896-.306-.972 1.207.59 2.47 1.52 2.809 2.067.903 1.46.296 1.195-2.503-1.095zm-12.416-1.552c-.527-1.372-.38-1.434.893-.377 1.735 1.44 1.916 2.019.63 2.019-.492 0-1.177-.739-1.523-1.642zm-377.58-5.358c0-.55.9-1 2-1s2 .45 2 1-.9 1-2 1-2-.45-2-1zm67.5 0c-1.319-.567-1.49-.878-.5-.915.825-.03 2.175.382 3 .915 1.828 1.181.249 1.181-2.5 0zm-37.854-4.764c-.864-1.397 9.36-2.63 10.7-1.29.738.738.47 1.057-.896 1.065-1.073.006-3.58.28-5.573.61-1.993.33-3.897.156-4.231-.385zm-18.347-2.84c-1.16-2.498-1.108-2.565 1.498-1.911 3.559.893 3.718 1.143 1.893 2.967-1.99 1.99-1.975 1.994-3.391-1.056zm65.4-1.42c-4.29-.409-8.077-1.02-8.416-1.36-1.105-1.105 11.086-.458 16.217.861 5.641 1.45 3.565 1.583-7.8.5zm-83.7-.926c-.824-.56-2.737-1.027-4.25-1.035-1.512-.008-2.75-.448-2.75-.977 0-1.212 7.584-3.306 9.826-2.713.94.249.47.494-1.075.559-1.513.064-2.75.566-2.75 1.116 0 .559 2.733 1 6.2 1 3.91 0 5.849.35 5.25.949-1.473 1.47-8.775 2.24-10.45 1.1zm35.5-9.058c-2.75-1.572-7.024-3.369-9.5-3.994a184.091 184.091 0 0 1-9-2.57l-4.5-1.437 6.5.61c8.245.773 23 6.866 23 9.498 0 1.354-1.025 1.022-6.5-2.107zm-26.687-8.675c.722-.29 1.584-.254 1.916.079.333.332-.258.568-1.312.525-1.165-.048-1.402-.285-.604-.604zm46.188-2.317c0-.55 1.462-.993 3.25-.985 2.466.012 2.888.25 1.75.985-1.966 1.27-5 1.27-5 0zm-36.25-1.804c-2.613-.168-4.75-.734-4.75-1.257 0-.813 9.849-.288 10.817.577.768.688-1.679.962-6.067.68zm44.012-19.903c1.244-.24 3.044-.23 4 .02s-.062.446-2.262.435-2.982-.216-1.738-.455zM26.91 354.2c.687-.278 1.812-.278 2.5 0s.125.504-1.25.504-1.938-.227-1.25-.504zm47.5-3.054c1.512-.23 3.987-.23 5.5 0 1.512.229.275.416-2.75.416s-4.263-.187-2.75-.416zm-39.25-2.284c-1.83-1.183 3.853-1.183 8.5 0 2.61.664 2.35.777-2 .866-2.75.057-5.675-.333-6.5-.866zm36.5-2-7-.647 7.809-.177c4.993-.112 7.586.184 7.19.824-.34.55-.703.92-.808.823-.105-.097-3.341-.467-7.191-.823zm58.4-277.63c-1.16-1.398-1.087-1.566.544-1.25 1.037.2 2.073.928 2.302 1.615.594 1.784-1.26 1.546-2.846-.365z"/></svg>