<svg xmlns="http://www.w3.org/2000/svg" viewBox="0 0 207.49 419.95" version="1.0"><path style="fill:#000" d="M154.55 423.55c2.36-1.36 4.67-4.94 6.93-5.2-1.47 2.17-2.22 5.66 1.72 3.75 1.51-1.05 7.54-4.54 4.76-.41-3.63 3.48 3.09.65 4.79.63 1.52-.99 2.04-4.32 2.65-5.06 0 1.99-.23 6.13 2.93 4.29 1.26-2.16 5.39-1.76 3.69-5.12.09-1.1 4.21 3.05 3.12-.54-1.28-2.59 4.4 2.58 2.84-1.83-.07-1.12-3.1-3.93-2.57-3.73 1.44 1.17 4.62 4.54 5.49 1.68-.5-1.61-3.42-4.51-.12-1.77 2.21.28 1.97-4.79-.32-4.71-1.71-2.33 2.53-.85.47-3.77-.05-2.12-5.78-6.29-2.98-2.07 2.56 4.13-3.68 7.76-6.63 9.8-2.39.61 1.78-5.79 4.03-4.53a52.3 52.3 0 0 1 1.53-11.56c2.78-3.86.45-8.4-4.4-7.87-4.55.1-3.63 6.44-4.81 9.58 4.57-.84-2.12 4.8-1.02 6.93-3.62.2-2.78 6.72-6.97 7.59-4.1.2-4.31 7.28-8.13 5.96.18-4.27 4.65-6.11 7.96-7.64 4.01-2.87 4.9-8.2 6.33-12.61.82-3.7 2.05-7.55 1.53-11.34-2.55 2.72-6.34 4.3-8.62 7.31-3.47 2.28-7.82 3.37-11.44 5.63-3.97 1.1-6.86 3.82-10.8 4.59-3.46.94-6.81 2.47-10.68 2.14-6.57.08-13.23.7-19.75-.31-3.09-.69-5.02-5.19-.87-5.77 1.73-.89 4.46-5.75 5.94-4.3-.6 2.77-7.48 6.1-4.51 8.2 1.24-.73 3.95-5.11 3.16-1.06 2.24 2.2 8.56 1.57 9.49-2.33.28-1.77 5.71-6.58 4.6-2.84-2.6 1.27-4.96 8.19.21 5.83 2.28-2.16 4.61-1.55 6.15-4.38 2.25-1.57 1.87-.38 1.57 1.55 3.25 1.24 7.68-1.26 8.04-5.04 1.24.56 1.59 1.99 2.05-.25 3.43.97.5-7.11 3.25-3.06 2.52 6.17-1.38-6.81 3.03-2.29 2.41 4.04 6.16-4.24 9.31.16 1.57 1.78-.11-2.43 2.41-2.02 1.01-1.16-2.63-3.61.74-2.48 1.33.54 5.19 1.45 2.27-.85-3.06-2.36-6.53 1.42-9.05 1.75.13 4.2-9.53 2.98-4.9-1.28.82-2.55 2.85-2.51 4.58-2.15 2.8-2.21-5.67-5.43-1.78-5.27 3.5 2.87 8.21 2.85 12.39 1.75 3.73-2.08-5.01-.36-6.4-1.09-1.59-2.85 7.25.11 6.95-2.49-1.53-2.58 8.44-2.36 3.23.63 2.65-.09 6.38-1.68 2.9-3.67 3.3-.04.65-2.85-1.2-2.37 1.4-1.73 5.49-4.36 4.63-.48 2.48 1.67.53-7.51-2.45-4.52-3.96 3.01-5.37-3.04-3.73-5.28 3.13 3.8.04-5.56 4.03-5.79 4.24.02 5.14-3.75 5.23-7.38.06-1.83 1.25-6.16 1.18-1.64.84 3.33 3.67-2.29 5.75-1.25 1.8-2.81-4.27-6.21-1.84-7.94 1.4 1.41.87 4.3 3.7 3.2 1.81 3.87 5.42-4.33.91-1.63-2.95 2.02-3.22-2.58-.33-1.63.82-1.73-2.58-5.26-.09-7.2 1.33 1.11 3.4 4.11 1.93.52-2.13-3.32-.31-6.67 3.51-6.88 3.65-1.96-.62-2.47-1.03-3.79 1.04-1.96-2.93-5.09.64-5.1 1.77-2.71.7-9.79-3.56-6.31-2.94.8-1.85-2.26.25-.81-.39-2.79-5.77.14-2.16-2.96 1.27-.85 5.43 3.06 3.87-.67-2.8-2.83-5.17-7.89-8.33-9.26-.84 2.02-3.78-2.67-3.27 1.13-2.38.3-4.73 3.51-6.93 4.01-1.9-4.08-2.59 7.45-5.03 2.12-.13-2.62-1.54-4.06-4.06-3.73-2.99-2.48-7.94-.59-10.48-4.25-2.69-2.67-5.94-5.34-6.9-9.12-2.11-1.53-3.48-3.81-5.11-5.81-4.82 2.98-9.37 6.54-14.61 8.74-3.6 2.35-7.89 3.08-12.21 3.09-3.54.43-8.16-.33-10.96 1.37-1.63.78-3.56 1.3-1.07 2.97 1 3.23 3.78 3.78 6.94 4.23-3.11-.91-6.06 2.23-2.7 3.87.77.21 5.8-1.08 3.85-.17-1.39.66-2.77 1.32-4.16 1.98 2.33.41 4.67.81 7 1.22-1.69.64-4.03.56-5.08 2.11 1.99 3.14 1.58 7.28 3.69 10.48 1.42 3.03 4.34 5.11 5.01 7.77 2.29-.09 3.3.35 1.17 2.1-.86 2.15 1.68 2.64 2.51 2.42-1.03 3.18 4.42 4.79 3.05 8.64 2.11 4.18 3.35-1.93 6.2-2.29 3.05-1.22 3.37-9.27-.76-4.93-.05-.41 1.73-2.56 1.29-3.78 1.36-1.77 1.14-4.36 2.16-6.03 3.94.31 1.33-3.76-1.05-1.3-2.09 1.82-1.11 1.04-1.27-.65-3.96-1.65 3-1.87 4.36-1.48 2.28-.24 8.5-.99 7.26-4.04-3.16 1.71-5.71 2.84-9.62 2.69-2.81.47-3.79-.87-1.7-2.91-5.1 2.42.17-4.43 2.55-4.41-.49-1.35 3.34-3.85.57-4.15-1.94.54-5.19 5.16-6.43 3.58 2.57-3.46 6.82-4.51 8.75-8.43 1.25-1.11-2.39-4.7 1.17-4.76.27 1.65-.96 3.98 1.38 1.5 2.99-2.79 2.59 5.62 5.38 1.13.91-2.07 7.01-3.93 2.56-1.05-2.81 2.87 6.6 3.72 1.03 5.16-2.03 2.66-6.2 1.47-6.49-.89-1.9.73-3.75 2.55-1.44-.21 2.68-6.14-8.33 2.55-3.04 3.3 2.12-.14 7.41-.76 3.47 2.15-1.81 2.43-9.27 3.57-7.35 6.91 2.01 1.63 7.02-1.96 3.03-.23-3.08-3.16 3.53-4.58 4.75-1.26.94.52-1.17-3.95 1.9-2.65 2.34.11 4.18 1.65 1.26 2.99-2.21 3.26 4.41 2.83 2.24.17 1.55-1.44 5.63-2.59 1.92-.23-2.62 1.6 3.34.62-.36 2.18-3.44 1.93-7.64 2.75-10.57 5.45-1.72 1.29-.06 7.34.6 5.54-.55-1.46 1.87-1.21 1.07-3.06 1.37-2.9 3.2-1.62 2.18.98-.77 2.13-.06 6.66 1.43 2.32 1.9-3.47.89-9.92 6.69-8.69 3.14.72-3.94 6.77-1.5 2.37-1.07-2.99-2.88 2.85-1.89 4.29-.53 1.81-2.55 5 .43 2.3 3.47.54-6.23 3.32-2.86 5.34 1.36.73-2.43 3.53 1.18 3.77.46 1.59-1.87 3.04.43 4.16-1.94 3.64-4.05 7.34-5.38 11.17 2.81 3.17 1.61 8.19 4.01 11.13.5 2.85 1.46 8.84 4.48 6.57-.6 2.82 3.65 5.79 2.67 7.53-2.59-1.3-5.54-8.3-7.47-2.87-2.75 5.14-7.46 8.82-10.57 13.68-.56 3.22-5.42 3.55-8.18 4.52-3.59-.23-8.55 1.94-11.17 1.26 5.89-2.92 13.39-2.44 18.18-7.55 1.97-2.45 6.63-4.77 6.09-8.06-2.4-.04-3.76-.78-4.93-2.23-3.12-.84-3.52 2.49-6.09 3.3 1.57 1.5 7.1-3.03 5.05 1.08-1.86.49-7.56 1.35-7.45-.47 2.79-1.23-3.1-3.74 1.31-2.36 2.51-.15 3.68-3.2 6.54-3.24-.09-1.9-4.08-1.66-2.93-4.74.12-3.64-3.47-4.01-5.86-4.06.87-4.01-2.11-8.1-.52-11.89 3.63-2.41 3.8-6.99 6.43-10.07-1.1-.53-4.23 4.83-4.03.3-.99-1.58-6.23 0-4.73-3.78 3.82 3.96 1.03-3.65-1.66-3.98-3.67-.12 2.69-2.45-1.04-3.44.26-2.91-3.27-4.57-2.96-7.28-2.77.48-1.66-5.1-3.61-6.88-2.37-2.84-1.48-9.26-6.4-8.7-1.06-.57 4.71-1.9.96-1.81-3.35.11 2.26-2-.91-2.48.46-4.33-2.56-8.11-4.63-11.69-3.19-5.45-8.986-8.81-11.607-14.65-.901-1.54-2.399-5.36.112-1.94 3.255 2.02 7.555 2.42 11.125 2.38 3.97-1.04 8.15-2.06 11.25-4.89 1.46-1.25 6.09-2.71 2.25-.19-1.65.59-3.84 3.53-.64 1.88 2.88-.62 5.37-5.04.87-5.05-2.97 3.7-7.32.03-8.79-3.14-.91-1.43-1.82-2.87-2.72-4.31 2.32-2.02 4.35-4.5 7.07-5.97-1.23 2.36-1.36 4.49-4.32 5.38-2.11 2.57 3.19 3.6 3.4 1.29 3.65.99 6.6-1.48 8.9-4.02 1.01-.98 2.02-1.97 3.03-2.96-2.41-2.46-4.77-5.77-8.56-5.78-2.46-1.21 1.19-1.58 1.65-1.41-1.87-3.97-5.73-6.76-6.93-11.11-2.58-5.05-5.66 2.45-8.02 4.12-3.59 3.93-7.478 7.6-10.607 11.91-2.547 2.68-6.446 5.58-4.823 9.8.409 3.7-1.518-5.11-3.594-.73-2.039 1.51-.219 3.93-3.083 3.24-5.816 4.14-10.129 10.01-14.911 15.25-3.51 3.82-6.59 8.37-11.217 10.92-3.485-.63 2.503-5.46 3.652-7.25 1.419-1.98 3.601-1.64 3.84-3.9 2.28-.02 1.785-3.24 4.09-3.83 3.081-5.62 8.494-9.49 12.312-14.59 2.355-3.29 4.903-6.6 9.098-6.79 1.011-3.26-3.9 2.5-2.72-1.56 2.53-2.43 4.866-5.52 7.148-8.39 1.329-2.11 5.385 1.7 4.385-2.33-.896.1-.724 3.03-2.109.47-.607-3.65 5.069-2.23 6.679-5.19 6.72-5.41 13.5-10.93 19.05-17.56 1.54-4.84 6.76-7.53 8.33-12.4-.92-2.8 3.02.43 2.58-2.69 3.37-2.47 4.87-6.31 7.99-8.92.8-3.31 5.67-2.76 5.19-7.12-2.33-2.95-5.45 3.64-7.45 5.2-3.63 4.2-6.76 8.91-10.93 12.61-3.27-.56 4.44-3.78.29-5.47-3.86-3.22-8.34-2.21-11.89.56-4.59.64-6.04 5.28-5.78 9.33.33 2.73 1.51 8.65 4.19 8.39 3.83-3.8 7.16-8.07 10.73-12.1 1.31-.32 2.23 2.45 3.73.06 2.41-.32-1.81 3.02-3.23 3.14-5.41 4.34-9.9 9.77-13.98 15.34-.32.77 4-2.39 2.08.56-3.82 3.83-8.03 7.31-12.05 10.94-1.47 1.83-4 1.97-1.58-.48 2.31-2.87 4.96-5.45 7.47-8.16-3.12-5.98-6.32-12.03-11.219-16.77-2.96-2.97-4.433-6.79-6.854-10.14-2.423-4.33-4.654-8.88-6.277-13.5-2.095-1.61-5.103.88-1.49.99-.05 3.98-.653 7.85.726 11.63.065 4.62-3.575 8.26-2.243 13.05.462 3.08 2.993 4.64 3.733 7.52 2.099 1.87.329-5.16 2.326-1.31.561 1.98 2.043 6.58.546 7.31.311-2.18-1.01-5.7-2.552-2.1-1.846 3.67-2.982 7.79-3.903 11.67-.349-1.52-3.325-7.76-3.496-3.38.316 2.49-3.496.85-2.887 3.34-3.612.49-7.467-.86-10.397-2.98-2.146-2.6-5.938-1.12-8.313-3.99-2.375-1.96-7.331-2.51-7.891-5.74-1.373-3.32-6.149-2.68-6.546-6.94-3.328-2.68-4.017-6.92-6.948-9.82-1.421-2.69-1.61-5.65-3.975-7.72.507-4.31-3.761-6.93-3.269-11.2-1.083-2.86-2.127-5.49-2.839-8.63-2.306-4.39-8.351-1.59-11.138-4.78-1.317-6.37-1.566-12.95-1.351-19.43.066-1.8 2.452 1.21 3.206-1.44 1.749-3.84 5.898-2.47 8.646-3.53-2.55-2.69-8.202-2.14-9.625 1.68-3.47 1.05 1.609-3.25 1.358-4.85 2.159-1.17 5.199-.25 6.492-2.56 6.109.7 11.844 3.43 17.259 6.22 5.144 2.83 7.565 8.87 8.519 14.37-1.58 2.88-4.667 8.07.725 9.02 3.835 2.18 6.003 6.8 10.387 7.98 3.992.78 8.327-.55 12.129.99 1.22 1.15 1.057 4.23 1.914 5l4.314-4.5c-1.637-2.58-3.679-4.95-4.863-7.78 1.463-.33 4.209 4.28 3.535.38 1.687-1.55 2.782 3.64 3.729-.37.657-3.23 4.487-7.65 2.419-10.43-3.983-.66-5.974 5.21-2.995 7.59-.169.33-3.149-2.48-4.12-.02-.259-2.1-4.982-3.53-3.076-.95 2.664-.63-1.269 3.88-1.804.4-1.475-2.7.477-7.97-4.31-7.37-3.526-2.29 1.733-4.95 3.241-1.64 5.356.5 2.716-7.02-.763-8.32-3.818-4.15-6.15-9.49-7.061-15.01-1.424-4.05-7.176-2.91-10.421-4.81-4.53-.89-7.2-4.85-9.127-8.69-1.5-3.66.324-7.68 1.464-11.18 3.439-4.84 5.979-10.28 8.097-15.823 2.339-6.348 4.222-14.053 10.707-17.455 3.676-1.297 6.739-3.766 10.589-4.67 4.751-1.237 9.56-2.935 14.503-2.92-2.04 2.366-6.434 2.384-9.607 2.957-3.967.712-8.105 1.672-11.117 4.524-2.897 2.166-7.118 2.04-8.35 6.059-2.028 3.271-3.405 6.873-4.206 10.606-2.525 6.232-5.897 12.092-9.629 17.662-1.899 1.6-2.48 9.59 1.07 5.83.108-6.7 6.388 2.18 1.518 3.63-3.458 2.74 1.385 7.79 4.399 6.64 3.096-.83 8.979.11 8.343-4.8 1.944-5.41-4.181.66-6.695-1.26-2.886-1.51-1.463-5.37 1.493-5.44 2.066-1.81 5.834-6.23 7.23-1.18-1.009 5.26 5.081-1.64 7.43 1.16-.141 1.8-7.252 1.68-3.163 3.01 1.323.14 4.254-.55 4.84-.49-2.718 1.06-6.467 1.21-7.8 4.16.459 3.31 2.141 6.07 5.434 6.66 1.459 2.99 1.257-4.46 2.988-2.22-2.944 3.55 6.313 7.56 3.184 2.42-4.231.17-2.21-5.63.123-6.52 1.315-3.08-.767-8.09 4.473-7.7 4.806-.77 9.821-1.03 14.613-.33-5.541.95-11.197 1.29-16.791 1.95.209 7.91 1.667 15.79 1.097 23.7-1.463 5.09-1.959-2.3-2.775-3.83-.373-1.63-3.045-5.13-3.049-1.46-1.4-2.19-1.507-1.61-2.515.03-2.204.68-5.206-5.84-4.731-1.94-1.269-.86-2.705-5.35-2.076-1.14 1.157 3.21-.833 9.35 3.813 9.52.655 1.76.553 7.99 3.318 4.18 3.098-2.65-.399 1.67-.533 2.85 2.052-.38 4.445-4.13 5.804-1.98.839-3.56 6.412-3.06 8.667-6.11 6.611-4.52 12.27-10.2 18.239-15.49 4.09-3.33 8.05-6.93 12.5-9.75-.75 2.9-2.81 5.99-6.19 7.32-3.48 2.72-6.88 5.68-9.65 9.14 2.93-.38 6.09-3.31 9.14-4.64 3.17-1.03 6.06-3.97 8.95-3.89.34-3.58 9.64.46 6.52 3.38-4.88 1.9 1.98 5.29 3.37 5.94-1.84 6.23 7.32-1.3 1.84-2.49-3.39-3.6 3.23-3.39 2.44-7.41-.41-4.33-4.78-.98-3.87 1.93-3.32.97-2.34-4.27-5.37-2.7-2.68-1.32 1.38-2.32 1.31-4.29 1.53-1.41 3.91-2.53 4.13-.37 4.52-.81-1.95-5.12 1.51-6.41-.91-4.45-7.31.67-10.4.3-6.02 1.23-12.06 2.59-18.2 3 1.71-1.72 7.36-1.86 10.46-2.81 2.74-.86 11.26-1.47 8.12-5.49-1.43-1.09-.72-3.88-1.51-5.19 2.27-.86.8 3.23 2.63.28 1.36-1.35-.11-7.888-.99-3.61.91 2.77-.06 1.33-1.27-.02-1.47 4.57-.45-2.97 1.56-3.772 2.64-1.944-8.34.418-3.35-2.278 3.83-.892 1.09-2.275-1.31-1.347-1.57-2.551 2.07-8.976-3.16-8.389-2.25-.855-5.49-1.42-4.41 2.214 2.67 2.282-1.29 5.998-3.22 4.008 2.18-.979 1.16-3.266 2.18-5.212-2.93.949-5.14-5.993-.65-3.511-1.68-4.709 4.18-5.977 6.59-9.081 3.52-1.103 6.95-3.274 10.03-4.047 2.52-.183 3.34-3.725 6.49-3.561 2.52-1.003 7.58-2.741 5.75-5.007 3.32-.276 8.45-3.67 8.52-6.421 2.79-1.02 1.39-4.119 4.57-4.283 1.99-3.366 5.75-5.68 7.48-8.974-3.38-2.057 5.89-1.165 1.45-3.726.68-.795 4.71-3.607 5.43-6.374 2.06-3.123 1.34-7.116 3.42-10.126.42-3.489.88-7.41-.6-10.663-.85-1.959-1.89-6.702-4.67-3.25-1.28 4.052-1.4 8.537-4.13 12.086-2.59 3.79-5.28 8.48-9.91 9.917-3.66.877.17 1.323 1.6 1.274-.32 2.215-3.43 2.915-2.7 5.724-1.71 1.85-.19-3.225-3.34-1.763-3.14 1.54-.71 1.116.97 1.254-1.16 1.818-5.02 3.782-2.71 6.462 1.64-.436 1.26-5.219 2.76-2.255-.33 3.737-3.64 5.733-6.72 5.268 3.39 4.146-1.2 2.93-2.03 1.24.86 3.007-.25 8.373-4.12 5.073-3.39-.827 6.16 5.122.97 4.655-2.11-1.12-4.18 1.237-1.71 2.052-1.4 4.553-7.56 4.464-8.76 8.473-2.31.506-4.49.546-6.21 2.53-2.47.08-3.61-1.068-1.33-2.605.2-4.247 6.29-4.489 6.07-8.533 2.87.081.85-4.807 4.68-4.269 2.53.383-2.12-3.59 1.79-3.83 3.63-2.015 3.92-7.04 7.88-8.828 2.21-.478 3.03-.319 1.09-2.366-.52-1.543 3.8-.314 2.03-2.89 1.4-1.167.39-3.105 2.91-3.36 1.98-2.166 1.51-5.807 5.6-4.839 1.64.19 4.43-2.295 1.33-1.212-.8-3.132 4.56-3.952 5.08-7.422 1.07-2.846 6.4-2.727 2.64-6-3 1.734-5.99 4.624-9.41 6.18-1.33 1.096-8.03 3.874-3.64.808 3.53-1.746 6.02-4.036 9.37-5.862 4.01-3.01 6.72-7.701 11.3-9.92 4.59-.81 5.71 5.208 6.02 8.63.84 9.091-3.41 17.707-7.87 25.34-3.34 4.608-7.25 8.792-10.52 13.467-3.64 5.063-8.13 9.466-13.51 12.657-6.68 4.772-15.14 7.314-20.32 13.978-1.02 3.776 2.55 7.36 3.69 10.918 1.84 3.662 2.33 7.817 4.58 11.308 2.15 3.98 3.53 8.55 6.88 11.71.5 4.16 5.54 4.91 7.15 8.51 2.58 5.59 6.72 10.87 12.74 12.96 2.36.69-.16 5.78 2.13 2.33 3.52.95 5.99 4.58 8.7 7 2.19 2.79 3.83 5.18 6.14 7.79 1.22 3.23 3.87 8.83 6.77 3.5 3.22-4.4 6.66-8.95 11.21-12 .71 1.28-1.69 6.93 1.43 3.77 4.24-4.42 8.67-8.7 12.47-13.51.03-3.78 4.89-7.76 8.14-4.64 1.57 5.39-5.59 6.07-8 9.65-3.16 3.43-7.97 6.12-9.35 10.75-1.7 3.26-1.31 7.81-4.74 9.89-2.19 1.66-4.45.33-4.4 3.54-3.32 2.55-6.98 6.1-2.79 9.85 3.96 5.65 8.28 11.26 10.12 18.04 2.11 3.78 1.11 7.98-1.21 11.38-2.05 4.05-4.92 7.59-8.2 10.71 2.58 3.84 5.34 7.59 7.16 11.86 8.01 12.35 10.45 27.22 12.99 41.4 2.76-3.97 1.83 3.92 1.66 5.64-.99 3.6-3.18 6.8-.4 10.28 1.23 3.96 3.22 7.42 3.65 11.5 2.7 5.02 4.07 10.71 4.95 16.31-.41 2.36.74 6.6 3.5 3.56 4.5-.4 5.57 5.58 6.93 8.91 2.44 4.43-2.32 7.09-2.7 11.05-1.39 4.63-6.67 4.67-9.9 7.12-3.75 3.08-.73 8.19-3.16 11.92-2.04 4.72-4.91 9.28-8.83 12.63-3.16 3.77 3.79 6.33 3.18 10.37.68 3.57.1 7-.95 10.25.31 4.24-3.14 7.55-2.66 11.82-.13 3.74.41 7.47 1.34 11.08-1.78 2.92-.94 7.43-4.82 8.75-2.82 2.82-5.74 6.08-9.98 6.51-9.35 1.22-18.81.84-28.22 1.18-2.48.42.6-1.16 1.21-1.86l.11-.08zm37.66-28.56c2.3-4.59-6.89.04-1.61-.45 2 .06-2.97 3.06.81 1.53l.47-.48.33-.6zm-3.16-10.46c-.63-1.62-4.11-1.36-5.6-2.62-1.8.08-5.46 3.72-1.43 2.28 2.01-3.99 4.27 4.1 7.03.34zm-22.5-3c-1.61-3.31-2.85 2.81-.08.39l.08-.39zm11.5-2c-3.08-.74-8.04-1.81-10.37-.1 3.3.74 8.03 1.38 10.75.3l-.38-.2zm5.5-1.56c-1.25-.52-3.93.16-3.79-1.82-6.42-.32 2.62 4.62 3.79 1.82zm-31.49-11.43c-2.93-3.27-.67 2.93-3.65 2.06-5.26.58 5.99 2.33 3.65-2.06zm35.49 2.93c-.96-2.09-3.27 2.44-.29.75l.21-.34.08-.41zm-37-6.5c-2.04-2.1-2.65 3.07-.29.49l.29-.49zm-11.58-2.57c.47-3.58 2.47 1.53 4.6-.64 1.05.03-.08 3.14 2.16 1.16 1.1-1.98 3.03-1.49 2.39.53 2.52-1.55.71-9.58-3.31-5.53-3.04 1.82 1.1-6.85-1.61-2.67-.09 1.33-1.61 6.55-2.52 2.89.76-2.02.3-8.13-1.88-3.7-.92 2.66-2.39 8.98-.3 10.14.35-.63.77-1.45.47-2.18zm45.58.13c-1.61-3.31-2.85 2.81-.08.39l.08-.39zm9 0c-1.61-3.31-2.85 2.81-.08.39l.08-.39zm-60.33-4.46c-1.86-3.38-.63 4.02 0 0zm52.33-.58c.95-1.33 3.48-1.66.33-1.66-2.81-1.28-5.66 4.49-1.47 2.7.43-.24 1.05-.48 1.14-1.04zm-48-2.07c-.87-1.41-4.22.8-2.29-2.41-3.59.15.25 6.03 2.29 2.41zm54-.93c-.23-2.1-5.45-6.8-2.83-1.94.01 1.11 2.31 4.78 2.83 1.94zm-52.64-8.93c-2.97 1.98-5.49 5.08-7.32 8.18 2.79-1.88 5.23-4.82 7.2-7.66l.14-.34-.02-.18zm58.64 6.91c-.96-2.09-3.27 2.44-.29.75l.21-.34.08-.41zm-56.38-1.25c4.67-1.41-6.3-1.62-3.02 1.05.76-.81 1.88-1.46 3.02-1.05zm59.38-.25c-1.2-3.42-2.28 2.89-.11 1.04l.08-.45.03-.59zm3-2c-2.04-2.1-2.65 3.07-.29.49l.29-.49zm-4.63-5.64c1.83-4.3-5.82 2.47-1.79 2.77.39-1.03.85-2.11 1.79-2.77zm-57.08-1.24c1.38-2.25 4.85 2.16 3.44-1.99-2.28.89-2.5-5.02-2.7-.59-.95 3.29-4.51-4.66-4.7-.63 1.23 1.49 4.07 2.98.92 4.36.71.9 2.43-.64 3.04-1.15zm5.1-4.98c-1.1-2.29 4.95-7.78.67-7.09-.48 2.09-1.5 2.09-3.51 2.87-1.67 2.41 2.5.01.65 2.91-.61 1.27 3.9 4.3 2.19 1.31zm62.11.42c-1.76-2.07-3.23-.14-.35.7.83.86.95-.41.35-.7zm2-2c-3.64-3.95-.16 4.23 0 0zm-10.01-2.02c-1.78-2.02-3.71 2.12-.37.94.4-.06.66-.6.37-.94zm10.69-2.2c-3.29-1.94 1.61 4.44.42.5l-.42-.5zm2.04-3c-1.48-2.26-4.34-1.41-1.58.71 1.32 1.89 4.9 2.48 2.07-.21l-.49-.5zm-70.09-.44c2.02-1.55-1.36-2.76-.57-4.14-2.78.95 1.27 6.35-3.03 4.28-.15 2.34 2.95 1.37 3.6-.14zm59.21-.59c.71-2 3.53 3.18 2.28-.55-.88-1.8-8.04-3.33-5.16-.23-1.18 2.46 2.19 2.61 2.88.78zm11.67-1.74c-1.54-1.86-5.27-1.48-1.9.6 1.24 1.42 5.92 2.54 2.47-.16l-.57-.44zm-7.4-2.74c-1.47.46.23 4.12.27.81l-.08-.47-.19-.34zm-1.05-7.05c-1.75-1.98-6 0-2.94 1.45-1.64 2.45 3.7-.65 2.94-1.45zm-59.37-8.9c-3.15-.9-1.25 1.73.4.22l-.4-.22zm58.31-3.32c-3.64-3.95-.16 4.23 0 0zm-50.5-3.56c-2.04-2.1-2.65 3.07-.29.49l.29-.49zm23.12-2.11c-2.81-4.01 1.33 5.78.38.74l-.38-.74zm23.88 1.67c-1.21-2.93-2.53 1.51-.13.71l.13-.71zm-3.91-5.1c-.57-2.84-1.46.42-2.63-.4 1.07 1.33 4.96 5.59 2.63.4zm-27.9-1.58c-3.15-.9-1.25 1.73.4.22l-.4-.22zm5.45-1.36c1.78-2.03 8.64-4.08 7.47-6.11-2.85 1.42-5.91 3.89-8.65.82-3.49-1.34-4.63 3.37-.64 3.26 3.08.58-4.27 3.47-.05 2.99.69-.17 1.36-.47 1.87-.96zm20.96-1.11c4.25-4.17-5.27 1.47-1.75 1.8.64-.54 1.19-1.18 1.75-1.8zm-25.78-.52c-.49-4.17-4.86-.53-1.88 1.52 1.04.55 2.24-.36 1.88-1.52zm-8.82-1.45c.71-1.56 3.05 2.4 3.59-.51 4.28.01 2.96-5.2.02-5.95-2.02 1.36.39 8.19-2.72 3.48-.99-.35-2.21.94-3.79.37-.41 1.29 2.21 5.83 2.9 2.61zm-35.19-1.82c3.51.33 4.58-2.34 7.53-3.51-.78-2.33 4.77-8.02 4.33-3.92-2.28-.95-2.8 4.86-1.86 3.88 1.66-2.11 3.99-3.92 6.85-3.18 3.18-.98 1.58-1.4-.65-.6 1-2.29 4.81-1.78 5.44-2.8-1.15-2.88-4.47-5.7-7.29-5.29.71-3.99-4.59-5.56-6.73-2.18-1.45.97-5.68 2.72-1.55 1.8-2.07 3.25-5.22 3.53-8.42 5.01-6.14 1.12-12.21 2.54-18.14 4.5-1.84.97-4.14-3.44-4.99-1.25 3.38 1.71 1.28 7.31 6.31 7.73 6.29 2.18 12.76-.27 19.17-.19zm7.19-9.44c1.06-1.68 4.51-3.8 1.66-.8-.32.27-1.46 1.9-1.66.8zm46.36 7.88c.91-2.35-4.55-.99-.77-2.93.99-2.89-8.95-1.52-3.62 1.35 1.01 2.17 2.12 4.91 4.39 1.58zm-6.63-2.82c-2.51-4.09-9.21.68-3.18 2.6 1.36 0 3.53-.91 3.18-2.6zm-12.64.01c-1.31-2.23-7.57-1.54-3.78.82.52.1 5.31.88 3.78-.82zm25.41-.69c-3.64-3.95-.16 4.23 0 0zm-21.5-1.41c.14-1.61 6.87-.54 3.65-2.71-.54-3.39-3.52-3.35-4.41-.34-3.79-1.43-5.48 3.38-1.3 4.3.92.37 2.16-.1 2.06-1.25zm-8.77-2.15c-.57-2.13-4.22-6.39-6.09-4.81 1.46 1.54 3.58 6.3 6.09 4.81zm25.59-2.09c0-3.92-5.5-4.8-4.82-.23-.65 4.68 2.9.85 4.82.23zm-6.46.15c-1.03-2.34-6-.61-2.79-3.58.25-3.79-3.02-5.62-6.31-4.08 3.47-.96 4.94-5.18.44-5.86-3.11.28-2.5-.77-.1-1.67 3.72-3.91-6.13-5.93-5.31-.62 1.94 6.22 4.98 12.53 10.3 16.56.86.86 4.5 1.43 3.77-.75zm-13.38-1.86c-.23-2.65-5.31-8.47-5.44-2.91.24 1.89 4.68 7.33 5.44 2.91zm3.02-1.42c.66-2.21-4.85-8.61-3.87-3.74.26 1.25 3.28 8.73 3.87 3.74zm13.8-1.73c.95-2.56-1.98-5.47-3.53-5.96 3.66-2.91-2.62-7.44-2.81-11.13-2.72-2.61-6.92 1.75-3.63 4.55.98 1.84 5.58.42 2.42 2.86-1.6 2.75 1.52 3.86 2.28 5.14-1.05 3.71 1.23 7.72 5.27 4.54zm-26.8-.33c-.21-4.31-9.68-4.57-4.75-.13 1.18.69 4.09 1.91 4.75.13zm-22.46-1.56c2.54-2.51-8.18-1.56-3.13.99 1.12.81 2.37-.19 3.13-.99zm26.88-.96c3.42-.29-3.03-5.89 1.35-3.35 3.01 3.31 4.41-1.55 1.77-3.48-1.92-3.23-4.37 1.77-6.71 2.14-2.32 1.97.62 4.52.64 6.73.83-.88 1.79-1.63 2.95-2.04zm-29.74-2.21c2.67.77 4.92-5.21 7.04-2.93-2.99 1.53-.41 1.31 1.08 1.77-1.19 1.39-4.24 5-.13 3.3 4.08-2.11-.53-5.62-2.32-7.61-.97-1.02-1.94-2.05-2.91-3.07-3.02 2.71-5.7 5.92-9.22 7.98-3.18-1.71-6.35 3.36-1.76 3.33 3.04-.07 5.08-3.34 8.22-2.77zm-.35-2.79c.19-2.54 4.76-4.31 2.06-.6-.34 1.07-2.18 3.25-2.06.6zm56.51 5.05c1.7-2.21-.26-9.32-2.83-4.4-1.25 1.79-.2 8.44 2.83 4.4zm-35.84-3.75c2.83-.01 1.1-5.61-1.08-6.39-.57 1.53 3.88 5.72-.47 4.76-1.72-.97-1.63-5.19-4.2-2.16-2.64 3.3 3.75 6.69 5.75 3.79zm39-2.65c-2.1-4.25.92 7.73.66 1.62l-.26-.83-.4-.79zm-32.73.11c2.11-3.39-6.74-8.19-4.26-2.75.37 1.91 2.14 4.63 4.26 2.75zm29.36-1.48c4.15-.55 2.98-5.53.46-5.32 1.65 1.65-.72 6.15-1.22 2.35-1.62-1.14-3.55-1.42-2.24-4.06.49-3.51-5.56-2.06-2.29-5.35 1.13-5.94-8.84-3.27-6.45 1.36-2.53-4.32-7.3.88-10.89.77-4.36.78 2.41-3.46 4.24-2.92 2.15-.67 5.58-3.17 1.25-3.11-1.59-4.01 10-1.12 5.85-4.24-2.12-.67-7-3.27-8.48 1.23-1.06 1.61-2.08 6.17-3.48 5.93 1.34-5.55-6.26-.07-4.82 3.15 2.47 2.08.2 4.3-1.44 5.45-1.48 3.18 4.76 6.49 3.37 1.65-1.76-4.6 3.69 3.62 5.39-.72 4.18-.7-1.26-6.44 1.92-5.73 2.02 5.4 6.1-.28 9.65-.19 2.14 1.8-.27 6.74 3.78 6.51-.63 2.95.13 7.15 3.8 4.18.54-.3 1.08-.62 1.6-.94zm-94.102-1.73c-1.795-.51-3.554 2.97-.582.94.226-.18.89-.53.582-.94zm46.772.06c-.92-3.1 3.66 3.04 5.65 1.04.49-1.68 1.7-2.59 3.63-3.42-.74-2.87.82-3.46 2.84-1.39.87-3.27-6.2-1.87-6.98-.76 2.98 3.94-5.94 1.49-8.05 2.5-.14.85 4.72 6.12 2.91 2.03zm1.7-5.05c-.37-1.28-3.35-4.19-.18-2.75 1.18 4.49 7.47-.69 4.29-2.68 1.69-2.27 3.46 4.07 4.89.23 3.41-2.52 8.91-2.53 11.88-6.38 4.04-.01 4.42-4.58 8-5.27 0-2.36 6.1.66 2.68-1.8-2.58-.87-8.01 2.36-7.16-2.06-4.39-.9-8.97-.33-13.45-.49 1.16 2.02 1.93 4.38 3.64 6 2.87.58 4.26-4.41 5.07-4.25.94 1.55 5.13 1.4 1.44 3.07-2.62.5-4.97 1.72-5.85 4.06-4.07-1.7-5.13 3.91-7.04 4.88.98-2.68-3.12-.84-1.29 1.17-2.57-2.96-5.41.62-3.32 3-2.56-1.64-7.56-1.4-8.53 2.15.52 1.44 4.15 2.75 4.93 1.12zm46-3.14c.4-2.08-2.23-5.81-1.81-2-2.6 1.02 1.69 2.88.4 4.85 1.35.41 1.35-2.05 1.41-2.85zm-33 1.05c-.62-2.02-4.35-2.27-1.52-.05.45.56 1.65 1.61 1.52.05zm3.97-4.27c-3.24-1.75-5.33 2.85-2.55 4.69 1.22-1.26 1.97-3.04 2.55-4.69zm-22.49 2.19c1.99-3.2-5.6-7.46-5.14-3.15 2.27.38 3.76 4.39.59 1.73-4.38 1.29 3.7 3.56 4.55 1.42zm4.08-4.57c1.18-3.17-3.56-.92-1.65-4.09-3.14-.01-4.97 3.2-1.73 5.12 1.87 2.66 3.35 2.47 3.38-1.03zm-10.06 1.54c-3.64-3.95-.16 4.23 0 0zm12.5-.06c-.96-2.09-3.27 2.44-.29.75l.21-.34.08-.41zm42.38-.49c.14-3.59-2.78 3.75-.25.58l.25-.58zm-57.81-3.14c-1.35-3.28 4.87 4.32 3.99-.69.04-4.2-7.42-6.49-7.25-1.55.01 1.25 4.3 6.52 3.26 2.24zm20.62-.64c2.55-.89 9.43-1.97 5.41-5.96-1.78-3.9-8.9-.96-4.75 2.53-1.79.13-4.53-2.43-6.81-.08-2.03.5.72 1.76 1.23 2.66 1.31 1.49 3.35 3.21 4.92.85zm-3.75-1.22c-4.29-3.34 5.69 2.38 1.26.96l-.56-.42-.7-.54zm44.53-.95c-1.57-.87-2.76 5.93-.59 1.84.27-.58.55-1.19.59-1.84zm-51.9-.62c2.14-2.82-2.08-.02-.88-3.08-4.3-4.88-7.12 3.9-1.62 5.09 1.21.07 1.98-1.08 2.5-2.01zm46.43 1.12c.09-1.32 2.31-1.52-.58-2.49-3.79-.63.85.98-.62 3.05.31.88 1.89.32 1.2-.56zm-61.64-5.78c-2.05-3.03 4.88 4.87 5.59.3 3.8.51 7.36-2.4 10.01-4.81-.49-1.66-3.37 1.84-5.09.63-1.24 2.57-1.46-2.35-1.99-3.57-.64-.01-1.14 3.54-2.23 3.65.9-2.78-5.04-3.18-1.88-.63 2.08 3.81-.85 2.6-1.97.25-.93-2.26-1.69.03-2.49 1.13-2.7 1.15-.42 8.21 1.01 5.41-.07-.86-.44-1.68-.96-2.36zm19.45.33c4.6 1.39 3.6-5.1.28-4.69-.54 1.27 3.26 4.81-.22 2.95-1.33-1.57-2.98-2.29-1.52.31.75 2.46-3.51-2.75-1.89.53 1.54 3.7 1.01 1.62 3.35.9zm35.69.07c-1.06-1.68-4.51-3.8-1.66-.8.32.27 1.46 1.9 1.66.8zm-26-3.61c-1.81-2.73-5.78 3.26-5.17-1.61-2 .69.63 6.3 3.22 3.16.69-.42 1.6-.77 1.95-1.55zm-76.082 1.63c-1.145-1.97-7.575-2.63-3.167-.33.512-.02 3.208 1.07 3.167.33zm7.383-2.27c2.063-2.06 6.004-.67 6.465-4.37 3.647-3.62-4.516-5.08-7.376-4.81-5.734-.51-11.679-.22-17.232-1.83-3.509-4.66-6.004-10.56-11.248-13.54-2.279.04-5.132-4.86-1.221-2.44 5.505 3.3 9.497 8.38 13.835 12.98 3.686 4.29 5.533-3.02 1.694-4.5-2.102-.59-3.128.2-2.963-2.37-.877-2.51-4.329-4.34-5.982-4.09 1.758-4.36-9.274-2.24-4.355-6.28 3.356-.76 5.36-5.81 1.892-7.88-.969-1.94-1.86-1.02-2.736.42-2.112 1.46-1.27 4.78-1.531 6.13-2.282-3.25-4.407-.7-2.786 2.25-1.223 2.06-2.656-3.32-3.657-4.04-3.666-2.35-4.438-7.21-5.11-11.09-1.398-1.41-4.048-5.78-.478-2.6 2.094 2.27 4.819 6.85 7.516 2.5 3.309-2.53 6.957-6.22 2.074-9.31-1.564-3.06-4.29-2.63-4.775-.05-2.948-2.32-5.633-6.69-9.889-6.12-1.597 4.31 2.006 8.53 1.945 12.91-.135 4.29 2.287 7.97 3.287 11.98-.37 2.14-1.534-3.37-2.178-.3 1.009 2.5 5.791 3.57 4.803 6.94-2.2-1.23-4.587 1.65-1.127.79 1.623 1.24 3.474.72 3.091 3.75 3.325 2.27 3.411 6.87 5.08 10.22 2.297 3.05 1.064-1.13 1.162-1.12 1.855 2.83 2.052 7.06 6.484 7.35 3.137 1.41 8.114 4.64 4.592 7.08 3.119 1.11 1.938-5.28 4.182-1.32 3.228 2.51 7.657 2.11 11.236 3.74.198 3.02 4.155.37 5.306-.98zm-15.8.63c-3.639-3.95-.16 4.23 0 0zm51.339-5c3.03-1.49 1.07-8.51-1.44-6.7 2.19.78 1.88 6.35-.96 3.1.54-2.67-3.57-5.11-3.34-1.25.58 2.56 1.89 6.38 3.58 7.61.76-.88 1.46-1.82 2.16-2.76zm18.1-2.47c2.34-.28 5.02-5.3 2.24-4.99 1.12 2.71-2.56-3.53-3.81-.08-1.52 1.75-8.65 6.92-2.53 6.29 1.42-.18 2.82-.58 4.1-1.22zm18.06-1.53c-1.61-3.31-2.85 2.81-.08.39l.08-.39zm-102.82-2.22c-3.298-1.94 1.608 4.44.419.5l-.419-.5zm80.946-1.53c2.76-3.81-5.04 4.12-.56.68l.56-.68zm11.1-2.79c-.04-3.73-3.45-4.83-4.43-.82.28 2.57 6.22 8.57 4.94 2.63-.14-.61-.31-1.21-.51-1.81zm15.25 3.5c.19-1.92 5.92 1.25 2.91-1.57.07-1.78-4.03-.77-3.25-3.86-2.33-5.89-6.65 2.41-3.43 4.22 1.12-4.13 2.34 1.87 4.05 2.17l.02-.23-.3-.73zm17.52-.46c.14-1.64 3.66-2.35.08-2.03-2.76-.12-3.91 4.86-.52 3.09l.32-.48.12-.58zm-101.9-2.81c-3.013-3.03-6.246 4.93-1.567 2.12.692-.36 2.417-1.11 1.567-2.12zm39.525 2.31c.07-1.53-2.94-5.59.1-2.71 3.45 3.52.84-4.13-.24-5 2.35 1.25 5.14-.66 1.8-1.97.36-4.48 5.41-5.8 8.8-7.42 1.97-2.47 6.44-1.4 8.17-2.56-3.06-2.73.97-1.37 1.78.66.99 1.17 1.98 2.33 2.98 3.5 2.45-2.77 5.47-5.36 6.4-9.06 2.42.43 4.7-4.9 1.11-2.8-3.57.96-1.61 7.72-5.63 4.32-3.27-.7-.65-7.03-4.41-3.97-1.63.97-4.72 3.75-.65 2.41 2.27-.59 4.7 2.67 1.07 2.17-5.56-.35-11.7.39-16.06 4.17-1.16 1.22-.59 4.33-2.88 1.97-3.11-1.34-4.58 1.48-1.73 3.2 1.46 4.09-2.49-1.38-3.52-2.17-3.64-.45-6.051 3.28-2.31 5.44 2.37 2.05 5.1 5.4.1 5.3-4.136 1.14-.14-1.11 1.45-2.02-1.98-2.05-3.48-4.72-5.982-6.13-.715 1.27-4.08 1.99-2.217-.05 4.009-3-2.272-5.24-3.426-7.3 2.726-3.94-6.781-4.25-1.571-7.57 4.655-1.81-3.281-.66-3.644.91 1.241 5.12 4.266 9.63 6.802 14.21 3.063 4.65 5.938 9.89 10.778 12.9 1 .51 1.93-.41 2.93-.43zm37.38-1.34c1.34-.57-4.07-.86-4.92-.95.15 3.31-3.24-3.17-1.5.85 1.18 1.17 4.34-.15 2.51 2.43 1.31-.73 2.47-1.79 3.91-2.33zm16.14-.54c-3.19-1.81 1.12-5.11 2.75-2.18-.68-4.98-7.77-1.63-5.31 2.53-.22 3.14 6.6 1.88 2.56-.35zm7.47-2.85c-3.13-1.29.41 5.44.3.8l-.1-.46-.2-.34zm-12.42 1.05c-3.15-.9-1.25 1.73.4.22l-.4-.22zm-80.715-2.11c1.05-2.83-3.247 2.73-2.116-.75 1.335-2.16-.761-5.27-2.28-1.93-3.242-3.33-2.502 6.6 1.597 4.2 1.036-.17 2.273-.51 2.799-1.52zm65.595-1.67c1.98-.92.99-6.35-1.54-2.84-2.4.63-3.65 7.66-.71 3.46.43 2.31.55 3.26 1.13.24.16-.37.55-1.16 1.12-.86zm-73.55-4.51c-2.822-3.19-3.203 1.73-5.274 2.36-1.224 3.64 3.684 5.26 4.397 1.02.486-1.03 1.197-2.19.877-3.38zm90.48 6.04c-1.52-1.51-5.72-5.09-7.1-3.31.97 1.56 5.8 5.6 7.1 3.31zm17.55-1.16c1.02-1.73-2.74-4.32-1.12-1.03-.09 1.52-2.56 2.54.3 1.78l.47-.33.35-.42zm-26.93-3.16c-.52-2.43 1.05-5.69.83-7.51-2.91 2.12-.83 8.1-4.09 8.43 1.72 2.74 3.84 3.21 3.26-.92zm17.57 2.57c-3.15-.9-1.25 1.73.4.22l-.4-.22zm-103.21-4.69c-.601-2.37-2.424-4.13-3.81-6.06-1.326 1.36-2.298 3.41-4.086 4.04.754-2.24 2.744-4.42-.142-6.32-1.305-3.87 4.709 3.75 3.915-1.29-.002-2.53-.676-7.47-3.746-4.14.748-2.14 1.243-4.98-2.021-3.13-1.11-2.03-3.706-6.31-4.455-9.29-2.645 1.91-5.04 4.93-1.174 7.11 2.444 2.51 4.619 6.16 7.014 7.44-.778 3.18-7.122 6.13-1.923 8.63 2.993 1.85 8.222 9.27 10.428 3.01zm-25.188.97c-2.982-3.39-1.082 2.74.622.99l-.199-.45-.423-.54zm39.814-1.33c-1.468.46.24 4.12.273.81l-.08-.47-.193-.34zm59.895.73c3.89-4.42-3.1 1.07-1.97 1.84.73-.52 1.36-1.18 1.97-1.84zm22.75 1.32c-2.99-.71-2.3-3.12-.74-4.23-.32-3.55-6.83 1.96-4.72-3.23-2.19-1.11-3.24-5.24-4.83-6.14-1.62 4.02 1.31 8.03 2.91 11.59.61 2.95 7.35 2.7 7.38 2.01zm-84.873-1.86c-.131-2.44-7.059 2.34-4.22-2.43.496-3.03 1.761-9.13-.897-10.38-.359 3.94-2.415 7.41-4.267 10.84 2.452 2 5.819 4.41 8.982 2.55l.402-.58zm90.613-.21c.03-3.05-3.9-4.26-3.15-.47.53.63 3 2.05 3.15.47zm14.5-1.24c5.4-3.74-5.85-6.38-4.53-1.04-.79 1.91-2.69-3.87-4.53-4.22-1.23-1.62-8.04-4.63-6.86-.97 1.3.35 6.89 3.53 4.09 4.09-1.46-1.15-5.95-4.55-3.59-.21 1.05 2.27 3.08 1.99 4.88 2.84.03-3.22 2.47 2.28 4.62.97 2.02.06 4.25-.2 5.92-1.46zm-114.2-6.02c.005-2.91-4.979-.95-3.706-3.8-1.832.97-.301 3.04-2.537 3.51.401 2.96 5.484 7.71 6.232 2.14.123-.61.159-1.24.011-1.85zm36.712 2.93c3.52-.38 7.74-1.91 11.17-3.81 2.69-1.29 10.22-4.65 4.55-7.36-1.82-.2-6.77.6-2.78-1.66 5-.32-2.09-6.97-4.62-3.68-5.28 2.32 1.66 5.99 2.68 8.59 2 .88.65 4.67-.8 1.42-1.69-3.41-10.07-.78-5.05 2.37 2.48 4.92-5.11-4.36-6.08.25 1.77 3.55-9.224-.63-4.172 2.87 1.682 1.38.863 3.83 3.882 2.11.45-.25 1.12-.51 1.22-1.1zm59.9-.16c.7-4.39-4.63-6.65-6.99-9.66-2.29-1.69-4.29-5.03-6.82-5.67.17 4.36 3.44 8.94 7.51 10.59 3.48.65 4.01 5.3 5.25 6.72.51-.56.77-1.29 1.05-1.98zm21.71-.49c-3.13-1.29.41 5.44.3.8l-.1-.46-.2-.34zm-108.61-3.33c-1.652-3.43-2.987 3.89-.294.85l.215-.43.079-.42zm103 1.2c-1.58-1.67-7.83 1.23-2.5.86.81-.07 2.11.01 2.5-.86zm5-.2c-.96-2.09-3.27 2.44-.29.75l.21-.34.08-.41zm-9-1.94c-2.5-.94 2.7-1.45-.36-2.56-4.35.64-.48 5.39 1.08 3.06l-.72-.5zm9-1.11c-1.34-3.18-4.12 4-.42.8l.31-.41.11-.39zm-141.45.04c.544-2.66-6.288-8.96-5.266-3.44.661 1.56 3.55 6.2 5.266 3.44zm55.735-.68c-1.3-2.82 5.448 3.36 4.218-1.81-1.56-2.42-4.802-4.5-6.523-1.97-3.474-2.03.05 3.5-3.356 1.8.482 1.2 6.69 6.2 5.661 1.98zm-29.397-2c-.014-3.64-1.008 1.15-2.632 1.05 1.984 1.93 3.157 2.34 2.632-1.05zm97.905 1c-.43-3.2-8.75.21-3.69-3.25 2.37-2.75-4.05-6.3-5.73-2.52-3.1 3.36 3.88 5.56 6.13 6.52.73 1.57 3.73 1.29 3.29-.75zm15.25-.33c2.68-4.07-4.91 2.46-2.55-1.93-3.69-3.21.1 8.36 2.55 1.93zm-9.49-1.84c-1.96-1.88-8.2-.57-3.8 2.03 1.21.39 4.36-.25 3.8-2.03zm-142.94-.81c-1.468.46.24 4.12.273.81l-.08-.47-.193-.34zm16.396.73c1.875-3.41-1.977-8.53-4.936-4.02-3.183 1.45 4.066 9.04 4.936 4.02zm18.884-.75c.006-3.99-1.054 2.11-3.368.22-2.022 2.57 4.465 4.04 3.368-.22zm13.478 1.25c-2.528-4.52-.371 4.78 0 0zm29.697.47c3.52-2.86-2.1-5.76-4.95-5.02-2.74.31-.36-.71.83-1.42 2.55-2.12 9.82-.48 7.98-5.68-1.36-3.54-10.62-1.42-6.47 2.08 1.32 4.02-3.56-2.58-5.59-1.05-5.56 1.21-.5 5.32 1.19 7.62 1.26 2.49 3.89 6.07 7.01 3.47zm18.01-1c4.41-1.87-.18-8.75-3.44-4.44-3.85 1.8.68 7.49 3.44 4.44zm8.32-1.54c.53-2.52 6.87.54 2.65-1.7-2.04-1.34-7.28 3.26-3.68 3.02.48-.31.83-.79 1.03-1.32zm42.38-1.24c-.37-1.85-4.42-.83-1.17-3.34 3.65-3.81-4.71.66-1.96 3.62-.23 3 2.51.99 3.13-.28zm-89.344-1.06c-1.459-2.03-3.808-1.36-.982.45 1.721 1.42 3.761 2.02.982-.45zm10.002.99c-.076-2.96-4.905-6.03-1.872-8.06-3.72-.17-2.191 5.27-4.522 7.11 1.398.9 3.557.18 4.953 1.8.61.02 1.142-.36 1.441-.85zm70.822-.51c2.21-1.25 1.93-3.51.1-4.23.64-4.93-8.35.12-4.31 3.59.78 2.49 2.63 2.12 4.21.64zM67.122 185c-1.216-2.24-5.629-1.12-2.183.58 1.478.44 5.551 1.51 2.183-.58zm66.44-.58c1.32-1.4 4.36-1.04.65-2.07-1.84.59-3.7.95-5.54 1.09-.89 2.97 4.32 3.42 4.89.98zm-49.231-.09c-1.14-2.56-7.882-2.99-4.019.71.975.6 4.018.98 4.019-.71zm41.221-2.88c-1.8-3.93-6.38-6-8.68-1.13-.22 4.66 5.25 5.39 7.84 2.02l.62-.53.22-.36zm33.02 2.33c3.38-2.67-2.5-8.87-4.83-4.2-4.59 2.93 2.12 8.65 4.83 4.2zm-68.174-4.37c-.806-5.93-7.158.27-3.123 2.87 2.364 2 3.663-.77 3.123-2.87zm58.164 2.27c-2.48-3.27-4.29-6.65-5.9-10.33-1.45-2.93-4.34 4.79-4.76.83 1.75-1.63 4.06-3.34.54-4.81-1.93-4.52 4.32 2.94 4.63-1.61 2.26-2.53-1.29-8.5 3.65-6.74 5.35-1.38 2.78-6.01.91-9.15 2 1.62 4.32 5.17 7.35 1.96.4.49-3.57 4.06-.58 5.97.87 1.07 1.65 3.2 2.58 3.66 1.59-1.82 4.49-3.88 2.7-6.56-1.05-1.55-1.64-4.6.81-2.13 3.04-.78.99 1.25 2.04 2.76 3.64-.82-2.25-8.59-4.4-5.22-3.16.87-2.99-3.88-5.52-4.94 1.63-1.12 6.71 5.98 6.3.63-.88-1.68-3.16.23-2.1-2.56-4.1-1.91-7.76 2.15-9.85 5.26-.92 2.72-2.54 3.92-5.38 3.87-2.4 3.28.08 2.55 2 1.31-.7 2.21-4.63 6.51-5.88 5.77 2.05-1.17 4.29-5.12.1-4.57-2.84 1.01-7.2 3.61-3.34 6.25-.85 2.07-3.79-4.51-6.13-1.11-2.9.92-3.83 3.95-.1 4.49 2.09.1 4.45-.59 1.53 1.41-.25 3.57 4.69 5.58 6.81 8.22 3.5 2.88 6.79 6.34 11.08 8.01.45.16.99-.16.91-.67zm-14.57-14.56c-.94-2.51 2.56-4.76 3.37-5.14-1.46 2.33-.81 7.41-3.01 8.17-.39-.96-.36-2.02-.36-3.03zm39.07 12.41c-.28-2.68-3.8-.35-3.08-2.92-3.05.44-.3 3.33 1.16 3.61-1.33 2.09 1.98-.2 1.78 2.19.9-.54.27-2.1.14-2.88zm-33.5 1c-2.52-1.11 2.32-1-.65-2.82-3.68-3.15-7-6.73-10.84-9.67-3.19-.31-2.25-7.58-6.44-4.6-3.21 3.75 5.88 4.69 2.45 7.45-4.35.05-3.09-5.77-6.22-8.05-1.25-1.63-1.58-3.18.45-1.01 3.68 3.07 4.41-4.31.24-2.88-2.85 1.17-5.32 2.02-7.41-.42-1.78 1.77-2.33 7.27-.34 8.73 2.24-.8-.26-8.05 2.41-3.8 1.19 1.51 6 .6 2.43 2.97-3.4 1.21-8.62 3.01-3.38 6.34.88 2.39 1.19 8.55 5.23 4.99 4.85-1.77.43-5.98-2.79-4.44 2.3-1.41-.47-6.55 3.15-3.35 1.66 2.83 3.95 4.36 7.19 5.2 2.02 1.63-3.39 1.27-.06 3.25 2.8 1.96 8.59 1.26 8.39-1.8 1.95.44 6.26 3.75 1.48 2.94-4.55.72 8 3.47 4.71.97zm-11.86-6.03c-4.49-4 3.89-.02 3.36 1.96-1.28-.28-2.34-1.18-3.36-1.96zm53.86 6.03c-1.21-2.93-2.53 1.51-.13.71l.13-.71zm-28.77-2.22c2.14-2.62-.22-8.96-2.86-9.25-3.66 2.51-4.13 7.41-.75 10.4 1.25 2.03 2.87.17 3.61-1.15zm11.86.64c3.41-2.92-3.44-7.8-6.35-4.81-3.74 1.59 2.31 5.8 4.4 6.2.78-.26 1.35-.88 1.95-1.39zm-137.42-1.88c-1.151-3.43-2.343 3.81-.066.57l.066-.57zm73.322.49c4.06-4.17-10.131-2.78-3.719.14 1.174 1.1 2.568.79 3.719-.14zm75.35.22c.18-2.8-3.73-3.42-2.1-.04.34 1.06 1.68 1.03 2.1.04zm-152.74-5.75c.555-2.75-.552-4.99-3.45-5.06-.273-1.98-2.251-4.89.763-4.14.494-2.6 3.692 4.54 3.675.15-.621-3.05-.076-10.04-4.674-9.32-2.314 1.1-4.191 2.89-6.257 4.37 1.148.44 6.22.43 4.097 1.75-2.999 2.92-1.502 8.14-1.446 12.02-.2 3.57 8.607 6.72 7.255 1.97l.018-.84.019-.9zm87.033 2.01c1.78-2.46-.48-1.84-1.36-1.25-1.95-1.15-4.57-6.37-4.44-1.74-3.63 4.04.98 7.21 4.63 3.83l.45-.27.72-.57zm59.63.89c.4-2.67-3.64-10.43-5.78-5.33-.87 2.85 2.89 7.42 5.78 5.33zm-80.771-4.36c.339-2.36 5.853-5.51 3.8-6.94-3.419 2.42-4.339 6.69-7.148 9.59 1.392.13 2.904-1.36 3.348-2.65zm69.591 1.39c3.47-2.3-2.43-9.91-5.1-5.72-2.66 2.89 1.94 9.98 5.1 5.72zm-10.76-2.65c4.4-4.05-3.85-7.34-4.81-2.12-1.74 3.25 3.17 7.59 4.45 2.76l.36-.64zm-61.319-.9c-1.665-2.21-2.852 4.03-.294.89l.215-.45.079-.44zm11.221.56c3.208-1.14 8.228-3.15 7.298-7.37-3.31-4.8-4.94 4.11-5.06 5.31-1.254-5.83-8.1-.47-8.432 3.15 1.548 1.22 4.38-.82 6.194-1.09zm-21.221-.94c1.761-2.12 2.542-6.27.133-8.48 1.133 3.86-3.34 4.61-5 5.88.334 1.7 4.11 6.51 4.867 2.6zm-36-.5c-2.491-2.28-5.931-4.45-8.285-7.3-3.624-2.19-2.977-6.98-4.908-9.66-2.789 2.6-1.512 7.16-.161 10.27 1.067 3.55 4.995 3.19 6.072 6.06 1.875.65 5.925 2.74 7.282.63zm123.58 0c.96-2.21-1.19-5-1.91-7.33-.48-1.96-1.17-2.45-2.21-.48-2.52 2.25-2.16 8.16 1.71 8.5.82-.15 1.57-.59 2.41-.69zm6.42-2.12c-1.66-2.21-2.85 4.03-.29.89l.21-.45.08-.44zm-16.56-1.21c3.06-1.77-1.7-9.86-4.37-5.94-3.96 2.25.74 10.17 4.37 5.94zm-108.94-1.42c-.927-1.99-2.039-4.79-.029-5.9-1.556-3.07-5.104-5.8-8.028-6.63 3.634 3.83-3.127 1.73-4.122-.37-1.463.44-4.391 6.8-.563 6.93 1.407 2.49 4.97 1.21 4.666 4.64 1.154 2.73 3.993.62 4.295-.62-1.436 2.9 4.56 5.81 3.781 1.95zm-7.053-5.72c-3.73-3.91 4.854 1.71 1.518 1.06-.526-.32-1.025-.69-1.518-1.06zm-4.685-1.19c1.351-.72-.209-3.56 1.746-1.16 1.062 1.71-3.957 2.35-1.746 1.16zm56.637 7.08c3.295-5.81-7.258.15-2.398 1.55 1.03.09 2.045-.59 2.398-1.55zm77.016-2.17c.3-2.32-1.88-6.36-3.67-2.82-.48 2.23 3.35 9.86 3.87 4.47l-.06-.77-.14-.88zm-69.159 1.36c2.239-1.05 2.519-9.29-.241-4.68-2.825.21-5.281 5.28-1.685 5.87.712-.27 1.319-.74 1.926-1.19zm-11.797-.77c7.13-2.07-5.698-6.45-3.742-.84.153 2.93 2.072 1.61 3.742.84zm-6.501-3.4c-4.022-4.14 1.061 6.07.772 1.36l-.319-.7-.453-.66zm49.867-.04c-.58-5.05-6.17-4.94-9.23-1.95-.72 2.77 4.76 6.89 7.36 3.15.62-.4 1.25-.8 1.87-1.2zm-24.57-.21c2.01-1.48 1.37-6.59 4.33-2.66 2.1 2.46 6.22 6.23 7.6.98.22-3.73 6.89-5.5 3.83-9-3.3-.38-4.8 3.94-4.99 5.98-2.07-1.58-4.79 3.17-3.37-.88.59-4.79-5.38-7.17-7.6-2.33-2.77 2.01-6.103 8.14-2.75 10.08 1.11-.54 2.01-1.39 2.95-2.17zm-13.749-.19c.001-1.74-4.444-.6-.884-2.6-.897-.15-8.832.4-4.116 2.14 1.459.41 3.906 2.49 5 .46zm43.949-2.16c5.74-1.41-1.57-7.9-4.47-4.38-4.93 2.76 1.14 7.69 4.47 4.38zm47.55-5.67c-1.6.51-6.05 4.9-4.26 5.16 1.66-1.45 3.19-3.22 4.26-5.16zm-90.999 2.85c-1.038-2.04-8.599-3.14-6.673.21 2.077.47 4.779.87 6.673-.21zm48.999-.9c1.49-1.49 5.9-2.26 1.98-4.48-4.04-3.04-8.48 4.72-2.89 5.37.48.01.97-.39.91-.89zm-40.655-2.33c1.115-2.59-.759-3.62-2.05-1.17-.494-1.86-1.137-3.04-1.449-.4-.884 2.36 1.321 1.95 1.743 3.8 1.025-.14 1.491-1.37 1.756-2.23zm29.485.93c6.27-1.68-3.22-7.4-3.83-2.22-1.51 2.13-.65 4.83 2.15 2.9.56-.22 1.12-.45 1.68-.68zm-100.83-2.71c-1.44-2.95-7.275-.93-2.855 1.24 1.003.28 2.743.07 2.855-1.24zm64.44-.63c1.835-5.87-5.411-.94-7.046 1.08-.194 2.61 7.268 2.18 7.046-1.08zm10.559 1.66c.51-1.89 6.17-6.11 1.09-5.02-.85.1-5.334 9.02-1.09 5.02zm13-1.04c4.72-2.35-2.03-8.92-4.54-4.38-2.29 1.17-2.63 2.94.04 3.81.42 3.53 2.56 2.65 4.5.57zm31-1.24c3.46-3.15-.89-3.84-2.63-3.19 4.22-2.18-3.73-8.32-5.21-3.17-2.01 3.06 2.1 4 3.75 4.51-.09 3.43 1.77 5.83 4.09 1.85zm-22.18-1.27c2.04-1.31 3.26-6.49-.48-3.49-2.24.65-5.27 7.45-1.17 5.17.6-.51 1.13-1.09 1.65-1.68zm12.44 1.26c4.27-2.82-5.63-6.56-3.96-4.81 1.42 2.84-4.73 1.58-4.44 2.43 2.24 1.77 5.02 5.03 7.99 2.68l.41-.3zm-14.36-4.82c.68-.93 3.46-1.8 1.55-2.8-1.8-2.14-4.92-4.17-7-1.07-3.73 4.12 2.36 8.08 5.45 3.87zm25.1-3.32c-1.17-3.03-4.7-.3-1.74 1.7 1.07.63 1.84-.81 1.74-1.7zm-9.5.1c3.22-1.12 2.14-9.85-.96-5-1.36 1.8-4.26 8.24.26 5.42l.7-.42zm-4.5-6.48c-.02-6.22-5.55 5.61-.6 2.71.47-.82.59-1.78.6-2.71zm9 2.71c-.96-2.09-3.27 2.44-.29.75l.21-.34.08-.41zm-30.59-1.09c-.11-1.38 4.38-3.58.71-2.28-2.05.78-5.47 4.1-.98 2.79l.29-.23-.02-.28zm24.41-5.21c-1.77-1.3-3.43-2.75-5.13-4.14 1.35 1.72 2.13 4.5 4.49 4.89-.24-.14.93-.42.64-.75zm-80.819-4.64c2.365-4.6-2.848 1.28-1.292 1.84.543-.52.926-1.19 1.292-1.84zm69.609-12.73c-1.47.46.23 4.12.27.81l-.08-.47-.19-.34zm-.61-2.48c-1.63-3.08-4.33 5.55-.87 1.61.38-.46.81-.98.87-1.61zm-4 1.15c-.96-2.09-3.27 2.44-.29.75l.21-.34.08-.41zm-3-17.499c-2.04-2.097-2.65 3.067-.29.493l.29-.493zm-9-10.5c-.96-2.095-3.27 2.436-.29.748l.21-.336.08-.412zm45.59-60.683c-2.63-1.092-3.41 4.645-.51 1.195.19-.322.75-.739.51-1.195zm3.22-8.195c-.73-3.46-4.78 4.135-.69 1.055l.42-.511.27-.544zm18.76 396.65c3.29-4.45-.84 3.86 0 0zm-55.57-11.54c1.52-3.03 5.17-5.53 8.43-5.81-3.3 1.45-5.32 5.27-8.15 6.52l-.2-.27-.08-.44zm24.5-6.54c-1.72-1.9-2.07-5.47 1.12-4.29-1.12-4.21 7.17-1.08 3.03 1.32-3.02-5.72 1.23 5.66-3.47 3.57l-.68-.6zm37.5-3.63c-2.47-3.02 4.55 2.03.65.41l-.65-.41zm-32-4c-2.47-3.02 4.55 2.03.65.41l-.65-.41zm2-3c1.34-1.35 4.34-1 1.34.38-.41.22-3.85 1.51-1.34-.38zm-20.27-.66c2.22-.85 5.12.77 1.19.46-.22-.02-2.02-.01-1.19-.46zm36.02-7c2.39-.88 3.83 1.05.38.46-.15.22-1.16-.37-.38-.46zm5.33-8.76c.64-4.18.93 3.34 0 0zm-3.88-8.08c.66-6.36.67 5.6 0 0zm3.05-2c-.27-2.45.7-3.28.63-.37.11 1.99-.74 4.28-.63.37zm10.98-8.5c-.11-4.82 1.49 1.39.14 1.96-.13-.65-.13-1.31-.14-1.96zm-9.11.23c-1.05-1.24-1.56-4.51.35-1.67 2.16 4.63 1.4-5.19 2.31-.54.09 1.49-1.36 5.9-2.66 2.21zm4.6-5.56c-1.05-1.81-.83-6.86.75-2.56.63.89.38 6.06-.75 2.56zm2.63-2.21c-1.26-4.23 2.36.08.84 1.46-.45-.37-.61-.96-.84-1.46zm1.3-5.13c-1.86-1.7-1.34-4.43.55-1.4 1.47 1.31 2.44 5.38-.12 1.96l-.43-.56zm-.65-7.33c-2.36-4.6 2.85 1.28 1.29 1.84-.54-.52-.92-1.19-1.29-1.84zm3.32.25c-1.11-2.23-1.42-4.23.64-1.1 1.59 1.41 1.12 5.18-.64 1.1zm2.94-4.96c-1.31-1.76-.77-4.73.73-1.29 1.49 2.01.64 4.74-.73 1.29zm-55.26.8c.36-2.85 4.42-2.9 1.85.02-.39.37-1.7.84-1.85-.02zm57.67-3.76c-1.4-1.73-.25-4.67.79-1.34.51.83.46 2.69-.79 1.34zm5.33-7.21c.53-3.3 3.62-.69.61.54-.33.11-.66-.21-.61-.54zm-45-4.26c-.8-1.27-3.78.43-1.6-2.05 1.8-2.79 7.31-.59 3.6 2.17-.49.47-2 1.13-2-.12zm-15.44-4.33c1.41-1.55 4.95-1.86 1.59.3-1.1 1.17-4.29 1.6-1.59-.3zm57.44-1.94c.46-1.84 4.64-3.04 2.08-.53-.56.26-1.46.82-2.08.53zm-57-1.53c.7-2.58 3.55.42.29.57l-.21-.21-.08-.36zm1-3.5c2.02-3.55 2.67 1.95 0 0zm14-1.97c.46-1.84 4.64-3.04 2.08-.53-.56.26-1.46.82-2.08.53zm-6-1.03c2.02-3.55 2.67 1.95 0 0zm6.23-3.13c1.76-2.32 3.48-.53.61.61-1.34.74-2.6 1.27-.61-.61zm-44.67-14.9c1.41-1.55 4.95-1.86 1.59.3-1.1 1.17-4.29 1.6-1.59-.3zm-15.589-5.59c-1.17-1.33-.799-5.45.569-1.79 1.125 1.89 1.231 5.67-.569 1.79zm25.889-9.66c1.72-2.03 4.58-4.76 7.1-4.59-1.89 2.2-4.63 4.5-7.32 5.26l.22-.67zm-.65-5.88c-2.35-3.28 5.96-.14 1.47.92-.59-.11-1.07-.5-1.47-.92zm-6.21-1.98c1.12-1.8 8.5-2.91 3.66-.81-1.15.34-2.46 1.05-3.66.81zm-24.554-2.92c-1.26-5.43-1.357-11.25-.107-16.69 2.755-4.45.903 3.29.599 4.94-.235 2.21-2.545 7.78 1.89 5.87 4.781-.19-.957 7.31 1.018 2.04-1.522-.6-2.177 3.97-2.34 5.93-.011 2.38-.766-1.62-1.06-2.09zm5.555-25c-.302-4.33-5.385-4.39-7.293-6.63-1.06-1.92-.087-5.72 1.31-1.87 1.994 1.38 4.648.92 6.054 2.93 4.904-2.23 7.026 5.28 2.482 6.77-1.106.46-2.744.44-2.553-1.2zm24.579.25c.77-2.12 7.26-6.26 3.5-1.73-.34.71-4.41 5.02-3.5 1.73zm-27.579-9.75c1.613-3.31 2.854 2.81.079.39l-.079-.39zm-3.75-1.65c-1.702-1.83-2.195-9.03 1.396-5.45 5.292-1.51 3.458 7.79-.93 5.62l-.466-.17zm-5.75-42.35c-.41-3.07 4.312 2.05.73.71l-.411-.32-.319-.39zm-15.5-50.46c.812-1.71 5.485-3.11 2.625-.16-.599.41-2.321 1.33-2.625.16zm-3-2.42c1.076-2.29 5.594-1.87 1.919.4-.576.52-1.988.78-1.919-.4zm-9.401-.98c-.782-4.04 5.392-2.3 6.905-5.05 2.367.12 8.918-3.12 4.055-4.61-2.321.26-5.235 5.59-4.069.28 1.577-1.81 9.146-3.45 4.343-6.95-.298-3.382 1.733-8.715 5.759-8.901 3.914 1.253 8.165 2.819 11.408 5.335 2.36.713 4.541 4.096 7.831 2.03 1.07-2.319 1.731 4.466 4.364 2.216 2.469 4.27-5.719 4.14-8.486 4.31-2.491 1-.876 7.48.668 2.85 1.662-3.74 8.125-.55 4.107 2.54-2.121-.15-2.381 4.81-3.984 2.81-1.399-2.15-2.244 4.02-4.486.83-2.997-3.27 4.575-2.73.719-4.85-3.043-1.81-2.814 3.35-6.213 1.74-4.425-1.21-4.459 4.07-7.52 4.98-.087-1.33-2.005-4.11.395-3.39.668-2.15-2.569-4.8-2.081-1.6-1.675.19-3.251.44-2.797 2.16-3.698-.82-8.728.36-10.166 4l-.317-.14-.435-.59zm29.795-9.72c.446-3.95-4.533 3.05-.716 1.12l.403-.51.313-.61zm-1.835-4.24c-1.797-3.279-5.505-5.266-9.059-6.099-3.367.731-2.407 6.589 1.389 6.739 2.393 1.74 7.458 6.16 7.829.28l-.159-.92zm-9.559 13.88c.701-2.58 3.551.42.294.57l-.215-.21-.079-.36zm28.397-1.23c.297-2.6 5.442 1.29 1.392.77-.514-.12-1.072-.31-1.392-.77zm1.872-3.43c1.99-1.4 3.85 1.97 0 0zm-1.998-6c1.988-1.4 3.848 1.97 0 0zm8.728-.33c.43-2.79 7.8-1.55 2.82-.97-1.99.31 4.79 2.14-.07 1.83-.88-.05-2.31.08-2.75-.86zm-12.841-4.07c.698-4.716.698 4.72 0 0zm13.341-2c-.41-3.072 4.31 2.05.73.707l-.41-.318-.32-.389zM94.08 91.545c.279-1.991 4.471 2.173.708.698l-.396-.314-.312-.384zm1.226-3.136c5.056-2.924-1.998 3.167 0 0zm-4.038-1.819c.749-3.341-2.89-1.651-3.765-.156-4.353.297 3.294-5.648 4.906-2.329 2.961 1.511-1.735 7.028-1.141 2.485zm-18.616-1.473c.64-4.184.928 3.338 0 0zm2 0c.64-4.184.928 3.338 0 0zm2 0c.64-4.184.928 3.338 0 0zm15.921-9.033c-.287-1.967-4.36-1.661-.656-2.97 4.714-2.963 6.266-8.85 8.105-13.775 2.06-6.567 3.1-13.651 7.27-19.336 1.86-3.418 3.09-7.208 5.79-10.115 1.26-1.937-.01 1.355-.07 2.162-2.29 7.55-7.99 13.73-9.44 21.577-.8 5.458-4.077 10.137-5.914 15.252 1.13 2.288 4.794-3.144 6.524-4.193 3.7-3.834 1.96 3.6 1.18 5.517-.56 2.464-.73 1.402-.81-.502-.44-5.023-1.8 7.631-1.85 1.36.21-5.262-3.095 1.898-5.077 2.645-1.066.554-4.492 4.529-5.052 2.378zm13.999-15.024c1.06-3.784 3.85-6.694 5.71-10.038 3.66-8.397 10.18-15.041 16.22-21.753 1.8-1.757-3.53-2.942.57-2.17 3.19 1.365 1.74-1.667 3.08-3.289-2.24.145-5.39-1.617-1.59-2.748 1.61-.649 5.12.859 4.41-2.215-2.11.016-4.62 1.017-1.28-.718 2.36-2.827 2.4-8.622-.37-11.114-2.13 2.806-3.81 6.533-6.62 9.12-2.86 3.379-6.27 6.398-8.58 10.168-4.56 2.662.58-3.207 1.75-4.43 3.99-4.364 8.13-8.707 10.95-13.958 2.19-4.378 7.85-1.962 6.68 2.682.23 4.564-.09 9.205-1.49 13.555 1.16.239 3.83-.975 1.34.99-8.14 5.445-15.38 12.311-20.66 20.599-2.18 3.099-3.48 6.68-5.26 9.985-2.64.951-1.65 5.505-4.86 5.334zm35-12.527c1.85-1.546 5.48-.711 1.53.388-.69.541-3.53.789-1.53-.388zm-9.5-35c2.13-2.828 2.94 1.386.04.921-.34-.191-.21-.672-.04-.921z" transform="translate(-13.134 -5.611)"/><path style="stroke:#000;stroke-width:1px;fill:none" d="M311.61 468.43c.24 0 .24 0 0 0z" transform="translate(-13.134 -5.611)"/></svg>